<?xml version="1.0" encoding="UTF-8"?>
<svg id="_图层_2" data-name="图层 2" xmlns="http://www.w3.org/2000/svg" xmlns:xlink="http://www.w3.org/1999/xlink" viewBox="0 0 538.1 120.31">
  <defs>
    <style>
      .cls-1 {
        fill: url(#_未命名的渐变_69-6);
      }

      .cls-1, .cls-2, .cls-3, .cls-4, .cls-5, .cls-6, .cls-7, .cls-8, .cls-9, .cls-10, .cls-11, .cls-12, .cls-13 {
        stroke-width: 0px;
      }

      .cls-2 {
        fill: #ed1c24;
      }

      .cls-3 {
        fill: url(#_未命名的渐变_69-5);
      }

      .cls-4 {
        fill: url(#_未命名的渐变_69-3);
      }

      .cls-5 {
        fill: url(#_未命名的渐变_69-2);
      }

      .cls-6 {
        fill: url(#_未命名的渐变_69-10);
      }

      .cls-7 {
        fill: red;
      }

      .cls-8 {
        fill: url(#_未命名的渐变_69-7);
      }

      .cls-9 {
        fill: url(#_未命名的渐变_69-9);
      }

      .cls-10 {
        fill: url(#_未命名的渐变_69-4);
      }

      .cls-11 {
        fill: url(#_未命名的渐变_69-11);
      }

      .cls-12 {
        fill: url(#_未命名的渐变_69-8);
      }

      .cls-13 {
        fill: url(#_未命名的渐变_69);
      }
    </style>
    <linearGradient id="_未命名的渐变_69" data-name="未命名的渐变 69" x1="71.51" y1="49.53" x2="79.76" y2="77.21" gradientTransform="translate(5.91 -4.13) rotate(.85)" gradientUnits="userSpaceOnUse">
      <stop offset="0" stop-color="#fbb03b"/>
      <stop offset="1" stop-color="red"/>
    </linearGradient>
    <linearGradient id="_未命名的渐变_69-2" data-name="未命名的渐变 69" x1="120.26" y1="48.8" x2="128.51" y2="76.49" xlink:href="#_未命名的渐变_69"/>
    <linearGradient id="_未命名的渐变_69-3" data-name="未命名的渐变 69" x1="169.01" y1="48.08" x2="177.26" y2="75.76" xlink:href="#_未命名的渐变_69"/>
    <linearGradient id="_未命名的渐变_69-4" data-name="未命名的渐变 69" x1="217.76" y1="47.35" x2="226.02" y2="75.04" xlink:href="#_未命名的渐变_69"/>
    <linearGradient id="_未命名的渐变_69-5" data-name="未命名的渐变 69" x1="266.52" y1="46.63" x2="274.77" y2="74.31" xlink:href="#_未命名的渐变_69"/>
    <linearGradient id="_未命名的渐变_69-6" data-name="未命名的渐变 69" x1="315.27" y1="45.9" x2="323.52" y2="73.59" xlink:href="#_未命名的渐变_69"/>
    <linearGradient id="_未命名的渐变_69-7" data-name="未命名的渐变 69" x1="364.02" y1="45.18" x2="372.27" y2="72.86" xlink:href="#_未命名的渐变_69"/>
    <linearGradient id="_未命名的渐变_69-8" data-name="未命名的渐变 69" x1="412.77" y1="44.45" x2="421.02" y2="72.14" xlink:href="#_未命名的渐变_69"/>
    <linearGradient id="_未命名的渐变_69-9" data-name="未命名的渐变 69" x1="461.52" y1="43.73" x2="469.78" y2="71.41" xlink:href="#_未命名的渐变_69"/>
    <linearGradient id="_未命名的渐变_69-10" data-name="未命名的渐变 69" x1="510.28" y1="43" x2="518.53" y2="70.69" xlink:href="#_未命名的渐变_69"/>
    <linearGradient id="_未命名的渐变_69-11" data-name="未命名的渐变 69" x1="22.33" y1="50.77" x2="30.58" y2="78.45" xlink:href="#_未命名的渐变_69"/>
  </defs>
  <g id="_图层_1-2" data-name="图层 1">
    <rect class="cls-7" y="50.54" width="538.1" height="13.33"/>
    <g>
      <g>
        <g>
          <rect class="cls-2" x="30.52" y="103.22" width="11.51" height="18.03" transform="translate(-81.64 115.31) rotate(-73.58)"/>
          <rect class="cls-2" x="35.58" y="88.34" width="11.51" height="18.03" transform="translate(-63.74 109.49) rotate(-73.58)"/>
          <rect class="cls-2" x="40.63" y="73.46" width="11.51" height="18.03" transform="translate(-45.84 103.66) rotate(-73.58)"/>
          <rect class="cls-2" x="45.69" y="58.58" width="11.51" height="18.03" transform="translate(-27.93 97.84) rotate(-73.58)"/>
          <rect class="cls-2" x="50.75" y="43.7" width="11.51" height="18.03" transform="translate(-10.03 92.02) rotate(-73.58)"/>
          <rect class="cls-2" x="55.81" y="28.82" width="11.51" height="18.03" transform="translate(7.87 86.19) rotate(-73.58)"/>
          <rect class="cls-2" x="60.87" y="13.93" width="11.51" height="18.03" transform="translate(25.78 80.37) rotate(-73.58)"/>
          <rect class="cls-2" x="65.92" y="-.95" width="11.51" height="18.03" transform="translate(43.68 74.54) rotate(-73.58)"/>
        </g>
        <polygon class="cls-13" points="82.33 4.87 71.02 39.83 77.07 109.55 89.07 77.25 82.33 4.87"/>
      </g>
      <g>
        <g>
          <rect class="cls-2" x="79.28" y="103.22" width="11.51" height="18.03" transform="translate(-46.67 162.08) rotate(-73.58)"/>
          <rect class="cls-2" x="84.33" y="88.34" width="11.51" height="18.03" transform="translate(-28.76 156.26) rotate(-73.58)"/>
          <rect class="cls-2" x="89.39" y="73.46" width="11.51" height="18.03" transform="translate(-10.86 150.43) rotate(-73.58)"/>
          <rect class="cls-2" x="94.45" y="58.58" width="11.51" height="18.03" transform="translate(7.04 144.61) rotate(-73.58)"/>
          <rect class="cls-2" x="99.51" y="43.7" width="11.51" height="18.03" transform="translate(24.95 138.78) rotate(-73.58)"/>
          <rect class="cls-2" x="104.57" y="28.82" width="11.51" height="18.03" transform="translate(42.85 132.96) rotate(-73.58)"/>
          <rect class="cls-2" x="109.62" y="13.93" width="11.51" height="18.03" transform="translate(60.75 127.14) rotate(-73.58)"/>
          <rect class="cls-2" x="114.68" y="-.95" width="11.51" height="18.03" transform="translate(78.65 121.31) rotate(-73.58)"/>
        </g>
        <polygon class="cls-5" points="131.09 4.87 119.78 39.83 125.83 109.55 137.83 77.25 131.09 4.87"/>
      </g>
      <g>
        <g>
          <rect class="cls-2" x="128.03" y="103.22" width="11.51" height="18.03" transform="translate(-11.69 208.85) rotate(-73.58)"/>
          <rect class="cls-2" x="133.09" y="88.34" width="11.51" height="18.03" transform="translate(6.21 203.03) rotate(-73.58)"/>
          <rect class="cls-2" x="138.15" y="73.46" width="11.51" height="18.03" transform="translate(24.12 197.2) rotate(-73.58)"/>
          <rect class="cls-2" x="143.21" y="58.58" width="11.51" height="18.03" transform="translate(42.02 191.38) rotate(-73.58)"/>
          <rect class="cls-2" x="148.26" y="43.7" width="11.51" height="18.03" transform="translate(59.92 185.55) rotate(-73.58)"/>
          <rect class="cls-2" x="153.32" y="28.82" width="11.51" height="18.03" transform="translate(77.82 179.73) rotate(-73.58)"/>
          <rect class="cls-2" x="158.38" y="13.93" width="11.51" height="18.03" transform="translate(95.73 173.91) rotate(-73.58)"/>
          <rect class="cls-2" x="163.44" y="-.95" width="11.51" height="18.03" transform="translate(113.63 168.08) rotate(-73.58)"/>
        </g>
        <polygon class="cls-4" points="179.84 4.87 168.54 39.83 174.59 109.55 186.59 77.25 179.84 4.87"/>
      </g>
      <g>
        <g>
          <rect class="cls-2" x="176.79" y="103.22" width="11.51" height="18.03" transform="translate(23.29 255.62) rotate(-73.58)"/>
          <rect class="cls-2" x="181.85" y="88.34" width="11.51" height="18.03" transform="translate(41.19 249.79) rotate(-73.58)"/>
          <rect class="cls-2" x="186.91" y="73.46" width="11.51" height="18.03" transform="translate(59.09 243.97) rotate(-73.58)"/>
          <rect class="cls-2" x="191.96" y="58.58" width="11.51" height="18.03" transform="translate(77 238.15) rotate(-73.58)"/>
          <rect class="cls-2" x="197.02" y="43.7" width="11.51" height="18.03" transform="translate(94.9 232.32) rotate(-73.58)"/>
          <rect class="cls-2" x="202.08" y="28.82" width="11.51" height="18.03" transform="translate(112.8 226.5) rotate(-73.58)"/>
          <rect class="cls-2" x="207.14" y="13.93" width="11.51" height="18.03" transform="translate(130.7 220.68) rotate(-73.58)"/>
          <rect class="cls-2" x="212.2" y="-.95" width="11.51" height="18.03" transform="translate(148.61 214.85) rotate(-73.58)"/>
        </g>
        <polygon class="cls-10" points="228.6 4.87 217.29 39.83 223.35 109.55 235.35 77.25 228.6 4.87"/>
      </g>
      <g>
        <g>
          <rect class="cls-2" x="225.55" y="103.22" width="11.51" height="18.03" transform="translate(58.26 302.39) rotate(-73.58)"/>
          <rect class="cls-2" x="230.61" y="88.34" width="11.51" height="18.03" transform="translate(76.17 296.56) rotate(-73.58)"/>
          <rect class="cls-2" x="235.66" y="73.46" width="11.51" height="18.03" transform="translate(94.07 290.74) rotate(-73.58)"/>
          <rect class="cls-2" x="240.72" y="58.58" width="11.51" height="18.03" transform="translate(111.97 284.92) rotate(-73.58)"/>
          <rect class="cls-2" x="245.78" y="43.7" width="11.51" height="18.03" transform="translate(129.87 279.09) rotate(-73.58)"/>
          <rect class="cls-2" x="250.84" y="28.82" width="11.51" height="18.03" transform="translate(147.78 273.27) rotate(-73.58)"/>
          <rect class="cls-2" x="255.9" y="13.93" width="11.51" height="18.03" transform="translate(165.68 267.45) rotate(-73.58)"/>
          <rect class="cls-2" x="260.95" y="-.95" width="11.51" height="18.03" transform="translate(183.58 261.62) rotate(-73.58)"/>
        </g>
        <polygon class="cls-3" points="277.36 4.87 266.05 39.83 272.1 109.55 284.1 77.25 277.36 4.87"/>
      </g>
      <g>
        <g>
          <rect class="cls-2" x="274.31" y="103.22" width="11.51" height="18.03" transform="translate(93.24 349.16) rotate(-73.58)"/>
          <rect class="cls-2" x="279.36" y="88.34" width="11.51" height="18.03" transform="translate(111.14 343.33) rotate(-73.58)"/>
          <rect class="cls-2" x="284.42" y="73.46" width="11.51" height="18.03" transform="translate(129.04 337.51) rotate(-73.58)"/>
          <rect class="cls-2" x="289.48" y="58.58" width="11.51" height="18.03" transform="translate(146.95 331.69) rotate(-73.58)"/>
          <rect class="cls-2" x="294.54" y="43.7" width="11.51" height="18.03" transform="translate(164.85 325.86) rotate(-73.58)"/>
          <rect class="cls-2" x="299.6" y="28.82" width="11.51" height="18.03" transform="translate(182.75 320.04) rotate(-73.58)"/>
          <rect class="cls-2" x="304.65" y="13.93" width="11.51" height="18.03" transform="translate(200.66 314.21) rotate(-73.58)"/>
          <rect class="cls-2" x="309.71" y="-.95" width="11.51" height="18.03" transform="translate(218.56 308.39) rotate(-73.58)"/>
        </g>
        <polygon class="cls-1" points="326.12 4.87 314.81 39.83 320.86 109.55 332.86 77.25 326.12 4.87"/>
      </g>
      <g>
        <g>
          <rect class="cls-2" x="323.06" y="103.22" width="11.51" height="18.03" transform="translate(128.22 395.93) rotate(-73.58)"/>
          <rect class="cls-2" x="328.12" y="88.34" width="11.51" height="18.03" transform="translate(146.12 390.1) rotate(-73.58)"/>
          <rect class="cls-2" x="333.18" y="73.46" width="11.51" height="18.03" transform="translate(164.02 384.28) rotate(-73.58)"/>
          <rect class="cls-2" x="338.24" y="58.58" width="11.51" height="18.03" transform="translate(181.92 378.46) rotate(-73.58)"/>
          <rect class="cls-2" x="343.3" y="43.7" width="11.51" height="18.03" transform="translate(199.83 372.63) rotate(-73.58)"/>
          <rect class="cls-2" x="348.35" y="28.82" width="11.51" height="18.03" transform="translate(217.73 366.81) rotate(-73.58)"/>
          <rect class="cls-2" x="353.41" y="13.93" width="11.51" height="18.03" transform="translate(235.63 360.98) rotate(-73.58)"/>
          <rect class="cls-2" x="358.47" y="-.95" width="11.51" height="18.03" transform="translate(253.53 355.16) rotate(-73.58)"/>
        </g>
        <polygon class="cls-8" points="374.87 4.87 363.57 39.83 369.62 109.55 381.62 77.25 374.87 4.87"/>
      </g>
      <g>
        <g>
          <rect class="cls-2" x="371.82" y="103.22" width="11.51" height="18.03" transform="translate(163.19 442.7) rotate(-73.58)"/>
          <rect class="cls-2" x="376.88" y="88.34" width="11.51" height="18.03" transform="translate(181.09 436.87) rotate(-73.58)"/>
          <rect class="cls-2" x="381.94" y="73.46" width="11.51" height="18.03" transform="translate(199 431.05) rotate(-73.58)"/>
          <rect class="cls-2" x="387" y="58.58" width="11.51" height="18.03" transform="translate(216.9 425.22) rotate(-73.58)"/>
          <rect class="cls-2" x="392.05" y="43.7" width="11.51" height="18.03" transform="translate(234.8 419.4) rotate(-73.58)"/>
          <rect class="cls-2" x="397.11" y="28.82" width="11.51" height="18.03" transform="translate(252.71 413.58) rotate(-73.58)"/>
          <rect class="cls-2" x="402.17" y="13.93" width="11.51" height="18.03" transform="translate(270.61 407.75) rotate(-73.58)"/>
          <rect class="cls-2" x="407.23" y="-.95" width="11.51" height="18.03" transform="translate(288.51 401.93) rotate(-73.58)"/>
        </g>
        <polygon class="cls-12" points="423.63 4.87 412.33 39.83 418.38 109.55 430.38 77.25 423.63 4.87"/>
      </g>
      <g>
        <g>
          <rect class="cls-2" x="420.58" y="103.22" width="11.51" height="18.03" transform="translate(198.17 489.46) rotate(-73.58)"/>
          <rect class="cls-2" x="425.64" y="88.34" width="11.51" height="18.03" transform="translate(216.07 483.64) rotate(-73.58)"/>
          <rect class="cls-2" x="430.69" y="73.46" width="11.51" height="18.03" transform="translate(233.97 477.82) rotate(-73.58)"/>
          <rect class="cls-2" x="435.75" y="58.58" width="11.51" height="18.03" transform="translate(251.88 471.99) rotate(-73.58)"/>
          <rect class="cls-2" x="440.81" y="43.7" width="11.51" height="18.03" transform="translate(269.78 466.17) rotate(-73.58)"/>
          <rect class="cls-2" x="445.87" y="28.82" width="11.51" height="18.03" transform="translate(287.68 460.35) rotate(-73.58)"/>
          <rect class="cls-2" x="450.93" y="13.93" width="11.51" height="18.03" transform="translate(305.58 454.52) rotate(-73.58)"/>
          <rect class="cls-2" x="455.98" y="-.95" width="11.51" height="18.03" transform="translate(323.49 448.7) rotate(-73.58)"/>
        </g>
        <polygon class="cls-9" points="472.39 4.87 461.08 39.83 467.14 109.55 479.14 77.25 472.39 4.87"/>
      </g>
      <g>
        <g>
          <rect class="cls-2" x="469.34" y="103.22" width="11.51" height="18.03" transform="translate(233.14 536.23) rotate(-73.58)"/>
          <rect class="cls-2" x="474.39" y="88.34" width="11.51" height="18.03" transform="translate(251.05 530.41) rotate(-73.58)"/>
          <rect class="cls-2" x="479.45" y="73.46" width="11.51" height="18.03" transform="translate(268.95 524.59) rotate(-73.58)"/>
          <rect class="cls-2" x="484.51" y="58.58" width="11.51" height="18.03" transform="translate(286.85 518.76) rotate(-73.58)"/>
          <rect class="cls-2" x="489.57" y="43.7" width="11.51" height="18.03" transform="translate(304.75 512.94) rotate(-73.58)"/>
          <rect class="cls-2" x="494.63" y="28.82" width="11.51" height="18.03" transform="translate(322.66 507.12) rotate(-73.58)"/>
          <rect class="cls-2" x="499.68" y="13.93" width="11.51" height="18.03" transform="translate(340.56 501.29) rotate(-73.58)"/>
          <rect class="cls-2" x="504.74" y="-.95" width="11.51" height="18.03" transform="translate(358.46 495.47) rotate(-73.58)"/>
        </g>
        <polygon class="cls-6" points="521.15 4.87 509.84 39.83 515.89 109.55 527.89 77.25 521.15 4.87"/>
      </g>
    </g>
    <polygon class="cls-11" points="33.14 5.38 21.84 40.34 27.89 110.06 39.89 77.76 33.14 5.38"/>
  </g>
</svg>