<?xml version="1.0" encoding="UTF-8"?>
<svg id="_图层_2" data-name="图层 2" xmlns="http://www.w3.org/2000/svg" viewBox="0 0 535.92 76.62">
  <defs>
    <style>
      .cls-1 {
        fill: none;
        stroke-width: 3px;
      }

      .cls-1, .cls-2 {
        stroke: lime;
        stroke-miterlimit: 10;
      }

      .cls-2 {
        fill: lime;
        stroke-width: 5px;
      }
    </style>
  </defs>
  <g id="_图层_1-2" data-name="图层 1">
    <path class="cls-1" d="m47.07,26.34l85.28.26c6.79-10.69,16.41-22.32,26.81-21.45,12.89,1.09,16.71,20.53,29.11,20.68,13.42.16,17.85-22.55,30.64-22.21,13.33.35,17.19,25.28,29.87,25.28,12.48,0,16.17-24.14,29.11-24.51,13.44-.38,18.32,25.41,32.17,25.28,13.2-.13,17.06-23.63,30.64-23.74,12.9-.11,17.07,21.05,29.87,20.68,12.61-.36,15.67-21.08,28.34-21.45,12.64-.36,16.72,20.04,29.87,19.91,12.59-.12,15.67-18.87,28.34-19.15,13.51-.29,18.04,20.88,31.42,20.68,12.91-.21,14.74-23.62,26.79-21.45,23.57,4.25,25.86,51.99,3.84,59.74-13.5,4.75-19.9-20.78-33.71-19.15-13.59,1.6-15.83,20.2-28.34,20.68-13.63.52-18.48-21.26-32.17-20.68-12.47.53-15.23,18.91-27.57,19.15-12.84.25-16.88-19.49-29.11-19.15-13.44.37-17.24,24.48-29.87,24.51-12.32.03-16.22-22.88-29.11-22.98-12-.09-14.93,19.74-28.34,20.68-13.89.98-19.51-19.66-32.94-18.38-12.84,1.22-14.79,20.79-26.81,21.45-13.3.73-18.62-22.79-32.17-22.21-11.97.51-15.06,19.18-27.57,20.68-10.73,1.28-20.96-10.94-27.57-20.68H47.07"/>
    <path class="cls-2" d="m47.07,3.62C1.37-7.87-24.67,73.07,47.07,74.09V3.62Z"/>
  </g>
</svg>