<?xml version="1.0" encoding="UTF-8"?>
<svg id="_图层_2" data-name="图层 2" xmlns="http://www.w3.org/2000/svg" xmlns:xlink="http://www.w3.org/1999/xlink" viewBox="0 0 79.13 126.96">
  <defs>
    <style>
      .cls-1 {
        fill: url(#_未命名的渐变_52);
      }

      .cls-1, .cls-2, .cls-3 {
        stroke-width: 0px;
      }

      .cls-2 {
        fill: url(#_未命名的渐变_58);
      }

      .cls-4 {
        fill: url(#_未命名的渐变_46-3);
        stroke: url(#_未命名的渐变_46-4);
      }

      .cls-4, .cls-5 {
        stroke-miterlimit: 10;
      }

      .cls-5 {
        fill: url(#_未命名的渐变_46);
        stroke: url(#_未命名的渐变_46-2);
      }

      .cls-3 {
        fill: #666;
        opacity: .52;
      }
    </style>
    <linearGradient id="_未命名的渐变_46" data-name="未命名的渐变 46" x1="39.56" y1="96.75" x2="78.63" y2="96.75" gradientUnits="userSpaceOnUse">
      <stop offset="0" stop-color="lime"/>
      <stop offset=".36" stop-color="#b5ffb5"/>
      <stop offset=".5" stop-color="#fff"/>
      <stop offset="1" stop-color="lime"/>
    </linearGradient>
    <linearGradient id="_未命名的渐变_46-2" data-name="未命名的渐变 46" x1="38.73" y1="96.75" x2="79.13" y2="96.75" xlink:href="#_未命名的渐变_46"/>
    <linearGradient id="_未命名的渐变_46-3" data-name="未命名的渐变 46" y1="96.75" y2="96.75" gradientTransform="translate(79.13) rotate(-180) scale(1 -1)" xlink:href="#_未命名的渐变_46"/>
    <linearGradient id="_未命名的渐变_46-4" data-name="未命名的渐变 46" x1="38.73" y1="96.75" x2="79.13" y2="96.75" gradientTransform="translate(79.13) rotate(-180) scale(1 -1)" xlink:href="#_未命名的渐变_46"/>
    <linearGradient id="_未命名的渐变_58" data-name="未命名的渐变 58" x1="31.56" y1="74.15" x2="47.56" y2="74.15" gradientUnits="userSpaceOnUse">
      <stop offset="0" stop-color="lime"/>
      <stop offset=".36" stop-color="#b5ffb5"/>
      <stop offset=".5" stop-color="#fff"/>
      <stop offset="1" stop-color="lime"/>
    </linearGradient>
    <linearGradient id="_未命名的渐变_52" data-name="未命名的渐变 52" x1="1.78" y1="25.78" x2="77.35" y2="25.78" gradientUnits="userSpaceOnUse">
      <stop offset="0" stop-color="lime"/>
      <stop offset=".36" stop-color="#b5ffb5"/>
      <stop offset=".5" stop-color="#fff"/>
      <stop offset="1" stop-color="lime"/>
    </linearGradient>
  </defs>
  <g id="_图层_1-2" data-name="图层 1">
    <polygon class="cls-5" points="39.56 96.75 78.63 125.96 78.63 67.53 39.56 96.75"/>
    <polygon class="cls-4" points="39.56 96.75 .5 125.96 .5 67.53 39.56 96.75"/>
    <polygon class="cls-2" points="39.56 96.74 31.56 90.73 31.56 51.55 47.56 51.55 47.56 90.73 39.56 96.74"/>
    <polygon class="cls-1" points="77.35 51.55 1.78 51.55 1.78 25.78 25.27 0 54.03 0 77.35 25.78 77.35 51.55"/>
    <rect class="cls-3" x="31.56" y="51.55" width="16" height=".85"/>
  </g>
</svg>