<?xml version="1.0" encoding="UTF-8"?>
<svg id="_图层_2" data-name="图层 2" xmlns="http://www.w3.org/2000/svg" xmlns:xlink="http://www.w3.org/1999/xlink" viewBox="0 0 223.06 124.59">
  <defs>
    <style>
      .cls-1 {
        fill: url(#_未命名的渐变_4746-26);
      }

      .cls-1, .cls-2, .cls-3, .cls-4, .cls-5, .cls-6, .cls-7, .cls-8, .cls-9, .cls-10, .cls-11, .cls-12, .cls-13, .cls-14, .cls-15, .cls-16, .cls-17, .cls-18, .cls-19, .cls-20, .cls-21, .cls-22, .cls-23, .cls-24, .cls-25, .cls-26, .cls-27, .cls-28, .cls-29, .cls-30, .cls-31, .cls-32, .cls-33, .cls-34, .cls-35, .cls-36, .cls-37, .cls-38, .cls-39, .cls-40, .cls-41, .cls-42, .cls-43, .cls-44, .cls-45, .cls-46, .cls-47, .cls-48, .cls-49, .cls-50 {
        stroke-miterlimit: 10;
      }

      .cls-1, .cls-2, .cls-3, .cls-4, .cls-5, .cls-6, .cls-7, .cls-8, .cls-10, .cls-11, .cls-12, .cls-13, .cls-14, .cls-15, .cls-16, .cls-17, .cls-18, .cls-19, .cls-20, .cls-21, .cls-22, .cls-23, .cls-24, .cls-25, .cls-26, .cls-27, .cls-28, .cls-29, .cls-30, .cls-31, .cls-32, .cls-33, .cls-34, .cls-35, .cls-36, .cls-37, .cls-38, .cls-39, .cls-40, .cls-41, .cls-42, .cls-43, .cls-44, .cls-45, .cls-47, .cls-48, .cls-49, .cls-50 {
        stroke: #1a1a1a;
        stroke-width: .25px;
      }

      .cls-2 {
        fill: url(#_未命名的渐变_4380-14);
      }

      .cls-3 {
        fill: url(#_未命名的渐变_4380-4);
      }

      .cls-4 {
        fill: url(#_未命名的渐变_4746-30);
      }

      .cls-5 {
        fill: url(#_未命名的渐变_4746-14);
      }

      .cls-6 {
        fill: url(#_未命名的渐变_4746-6);
      }

      .cls-7 {
        fill: url(#_未命名的渐变_4380-2);
      }

      .cls-8 {
        fill: url(#_未命名的渐变_4380-16);
      }

      .cls-9 {
        stroke: #4d4d4d;
      }

      .cls-9, .cls-51, .cls-46 {
        fill: none;
      }

      .cls-9, .cls-46 {
        stroke-width: .5px;
      }

      .cls-10 {
        fill: url(#_未命名的渐变_4380-7);
      }

      .cls-11 {
        fill: url(#_未命名的渐变_4380-9);
      }

      .cls-12 {
        fill: url(#_未命名的渐变_4746-8);
      }

      .cls-13 {
        fill: url(#_未命名的渐变_4746-25);
      }

      .cls-52 {
        fill: url(#_未命名的渐变_4398-2);
      }

      .cls-52, .cls-51, .cls-53, .cls-54, .cls-55, .cls-56, .cls-57, .cls-58, .cls-59 {
        stroke-width: 0px;
      }

      .cls-14 {
        fill: url(#_未命名的渐变_4380);
      }

      .cls-15 {
        fill: url(#_未命名的渐变_4746-9);
      }

      .cls-16 {
        fill: url(#_未命名的渐变_4746-19);
      }

      .cls-17 {
        fill: url(#_未命名的渐变_4746-15);
      }

      .cls-18 {
        fill: url(#_未命名的渐变_4746-31);
      }

      .cls-19 {
        fill: url(#_未命名的渐变_4380-12);
      }

      .cls-53 {
        fill: url(#_未命名的渐变_34-2);
      }

      .cls-20 {
        fill: url(#_未命名的渐变_4380-10);
      }

      .cls-21 {
        fill: url(#_未命名的渐变_4746-2);
      }

      .cls-22 {
        fill: url(#_未命名的渐变_4746-16);
      }

      .cls-23 {
        fill: url(#_未命名的渐变_4746-22);
      }

      .cls-24 {
        fill: url(#_未命名的渐变_4746-24);
      }

      .cls-25 {
        fill: url(#_未命名的渐变_4746-32);
      }

      .cls-26 {
        fill: url(#_未命名的渐变_4746-21);
      }

      .cls-27 {
        fill: url(#_未命名的渐变_4746-4);
      }

      .cls-54 {
        fill: url(#_未命名的渐变_4434);
      }

      .cls-28 {
        fill: url(#_未命名的渐变_4746-20);
      }

      .cls-29 {
        fill: url(#_未命名的渐变_4746-7);
      }

      .cls-55 {
        fill: url(#_未命名的渐变_4398);
      }

      .cls-30 {
        fill: url(#_未命名的渐变_4746-12);
      }

      .cls-31 {
        fill: url(#_未命名的渐变_4746-17);
      }

      .cls-32 {
        fill: url(#_未命名的渐变_4746-27);
      }

      .cls-33 {
        fill: url(#_未命名的渐变_4746-11);
      }

      .cls-34 {
        fill: url(#_未命名的渐变_4746);
      }

      .cls-56 {
        fill: url(#_未命名的渐变_4434-2);
      }

      .cls-35 {
        fill: url(#_未命名的渐变_4380-15);
      }

      .cls-36 {
        fill: url(#_未命名的渐变_4380-5);
      }

      .cls-57 {
        fill: url(#_未命名的渐变_4434-4);
      }

      .cls-37 {
        fill: url(#_未命名的渐变_4746-28);
      }

      .cls-38 {
        fill: url(#_未命名的渐变_4746-18);
      }

      .cls-39 {
        fill: url(#_未命名的渐变_4746-23);
      }

      .cls-40 {
        fill: url(#_未命名的渐变_4746-5);
      }

      .cls-41 {
        fill: url(#_未命名的渐变_4746-10);
      }

      .cls-42 {
        fill: url(#_未命名的渐变_4746-29);
      }

      .cls-43 {
        fill: url(#_未命名的渐变_4746-13);
      }

      .cls-58 {
        fill: url(#_未命名的渐变_34);
      }

      .cls-44 {
        fill: url(#_未命名的渐变_4380-3);
      }

      .cls-45 {
        fill: url(#_未命名的渐变_4380-11);
      }

      .cls-46 {
        stroke: #000;
      }

      .cls-47 {
        fill: url(#_未命名的渐变_4380-13);
      }

      .cls-59 {
        fill: url(#_未命名的渐变_4434-3);
      }

      .cls-48 {
        fill: url(#_未命名的渐变_4380-6);
      }

      .cls-49 {
        fill: url(#_未命名的渐变_4380-8);
      }

      .cls-50 {
        fill: url(#_未命名的渐变_4746-3);
      }
    </style>
    <linearGradient id="_未命名的渐变_4434" data-name="未命名的渐变 4434" x1="216.93" y1="2.82" x2="227.93" y2="2.82" gradientTransform="translate(-108.06)" gradientUnits="userSpaceOnUse">
      <stop offset=".04" stop-color="#333"/>
      <stop offset=".83" stop-color="#fcee21"/>
    </linearGradient>
    <linearGradient id="_未命名的渐变_4434-2" data-name="未命名的渐变 4434" y1="121.76" y2="121.76" xlink:href="#_未命名的渐变_4434"/>
    <linearGradient id="_未命名的渐变_4398" data-name="未命名的渐变 4398" x1="316.31" y1="61.4" x2="337.41" y2="61.4" gradientTransform="translate(-108.06)" gradientUnits="userSpaceOnUse">
      <stop offset=".13" stop-color="#fff"/>
      <stop offset=".53" stop-color="#1a1a1a"/>
      <stop offset=".59" stop-color="#1a1a1a"/>
      <stop offset=".83" stop-color="#fff"/>
    </linearGradient>
    <linearGradient id="_未命名的渐变_4380" data-name="未命名的渐变 4380" x1="274" y1="3.75" x2="274" y2="25.27" gradientTransform="translate(-108.06)" gradientUnits="userSpaceOnUse">
      <stop offset=".13" stop-color="#fff"/>
      <stop offset=".37" stop-color="#1a2a61"/>
      <stop offset=".61" stop-color="#1d2d63"/>
      <stop offset=".83" stop-color="#fff"/>
    </linearGradient>
    <linearGradient id="_未命名的渐变_4380-2" data-name="未命名的渐变 4380" x1="274" y1="17.31" x2="274" y2="38.84" xlink:href="#_未命名的渐变_4380"/>
    <linearGradient id="_未命名的渐变_4380-3" data-name="未命名的渐变 4380" x1="274" y1="30.88" x2="274" y2="52.41" xlink:href="#_未命名的渐变_4380"/>
    <linearGradient id="_未命名的渐变_4380-4" data-name="未命名的渐变 4380" x1="274" y1="44.45" x2="274" y2="65.98" xlink:href="#_未命名的渐变_4380"/>
    <linearGradient id="_未命名的渐变_4380-5" data-name="未命名的渐变 4380" x1="274" y1="58.02" x2="274" y2="79.54" xlink:href="#_未命名的渐变_4380"/>
    <linearGradient id="_未命名的渐变_4380-6" data-name="未命名的渐变 4380" x1="274" y1="71.58" x2="274" y2="93.11" xlink:href="#_未命名的渐变_4380"/>
    <linearGradient id="_未命名的渐变_4380-7" data-name="未命名的渐变 4380" x1="274" y1="85.15" x2="274" y2="106.68" xlink:href="#_未命名的渐变_4380"/>
    <linearGradient id="_未命名的渐变_4380-8" data-name="未命名的渐变 4380" x1="274" y1="98.72" x2="274" y2="120.25" xlink:href="#_未命名的渐变_4380"/>
    <linearGradient id="_未命名的渐变_34" data-name="未命名的渐变 34" x1="215.01" y1="62.53" x2="233.92" y2="62.53" gradientTransform="translate(-108.06)" gradientUnits="userSpaceOnUse">
      <stop offset=".07" stop-color="#3f3f3f"/>
      <stop offset=".21" stop-color="#4e4e4e"/>
      <stop offset=".39" stop-color="#888"/>
      <stop offset=".58" stop-color="#bbb"/>
      <stop offset=".74" stop-color="#e0e0e0"/>
      <stop offset=".87" stop-color="#f6f6f6"/>
      <stop offset=".95" stop-color="#fff"/>
    </linearGradient>
    <linearGradient id="_未命名的渐变_4746" data-name="未命名的渐变 4746" x1="321.43" y1="3.75" x2="321.43" y2="25.27" gradientTransform="translate(-108.06)" gradientUnits="userSpaceOnUse">
      <stop offset=".13" stop-color="#fff"/>
      <stop offset=".37" stop-color="#1a1a1a"/>
      <stop offset=".61" stop-color="#1a1a1a"/>
      <stop offset=".83" stop-color="#fff"/>
    </linearGradient>
    <linearGradient id="_未命名的渐变_4746-2" data-name="未命名的渐变 4746" x1="321.54" y1="17.31" x2="321.54" y2="38.84" xlink:href="#_未命名的渐变_4746"/>
    <linearGradient id="_未命名的渐变_4746-3" data-name="未命名的渐变 4746" x1="321.65" y1="30.88" x2="321.65" y2="52.41" xlink:href="#_未命名的渐变_4746"/>
    <linearGradient id="_未命名的渐变_4746-4" data-name="未命名的渐变 4746" x1="321.77" y1="44.45" x2="321.77" y2="65.98" xlink:href="#_未命名的渐变_4746"/>
    <linearGradient id="_未命名的渐变_4746-5" data-name="未命名的渐变 4746" x1="321.88" y1="58.02" x2="321.88" y2="79.54" xlink:href="#_未命名的渐变_4746"/>
    <linearGradient id="_未命名的渐变_4746-6" data-name="未命名的渐变 4746" x1="322" y1="71.58" x2="322" y2="93.11" xlink:href="#_未命名的渐变_4746"/>
    <linearGradient id="_未命名的渐变_4746-7" data-name="未命名的渐变 4746" x1="322.11" y1="85.15" x2="322.11" y2="106.68" xlink:href="#_未命名的渐变_4746"/>
    <linearGradient id="_未命名的渐变_4746-8" data-name="未命名的渐变 4746" x1="322.22" y1="98.72" x2="322.22" y2="120.25" xlink:href="#_未命名的渐变_4746"/>
    <linearGradient id="_未命名的渐变_4746-9" data-name="未命名的渐变 4746" x1="326.28" y1="3.75" x2="326.28" y2="25.27" xlink:href="#_未命名的渐变_4746"/>
    <linearGradient id="_未命名的渐变_4746-10" data-name="未命名的渐变 4746" x1="326.36" y1="17.31" x2="326.36" y2="38.84" xlink:href="#_未命名的渐变_4746"/>
    <linearGradient id="_未命名的渐变_4746-11" data-name="未命名的渐变 4746" x1="326.43" y1="30.88" x2="326.43" y2="52.41" xlink:href="#_未命名的渐变_4746"/>
    <linearGradient id="_未命名的渐变_4746-12" data-name="未命名的渐变 4746" x1="326.51" y1="44.45" x2="326.51" y2="65.98" xlink:href="#_未命名的渐变_4746"/>
    <linearGradient id="_未命名的渐变_4746-13" data-name="未命名的渐变 4746" x1="326.59" y1="58.02" x2="326.59" y2="79.54" xlink:href="#_未命名的渐变_4746"/>
    <linearGradient id="_未命名的渐变_4746-14" data-name="未命名的渐变 4746" x1="326.67" y1="71.58" x2="326.67" y2="93.11" xlink:href="#_未命名的渐变_4746"/>
    <linearGradient id="_未命名的渐变_4746-15" data-name="未命名的渐变 4746" x1="326.75" y1="85.15" x2="326.75" y2="106.68" xlink:href="#_未命名的渐变_4746"/>
    <linearGradient id="_未命名的渐变_4746-16" data-name="未命名的渐变 4746" x1="326.83" y1="98.72" x2="326.83" y2="120.25" xlink:href="#_未命名的渐变_4746"/>
    <linearGradient id="_未命名的渐变_4434-3" data-name="未命名的渐变 4434" x1="325.74" y1="2.82" x2="336.74" y2="2.82" gradientTransform="translate(-221.93 5.65) scale(1 -1)" xlink:href="#_未命名的渐变_4434"/>
    <linearGradient id="_未命名的渐变_4434-4" data-name="未命名的渐变 4434" x1="325.74" y1="121.76" x2="336.74" y2="121.76" gradientTransform="translate(-221.93 243.52) scale(1 -1)" xlink:href="#_未命名的渐变_4434"/>
    <linearGradient id="_未命名的渐变_4398-2" data-name="未命名的渐变 4398" x1="425.12" y1="61.4" x2="446.22" y2="61.4" gradientTransform="translate(-430.24 122.8) scale(1 -1)" xlink:href="#_未命名的渐变_4398"/>
    <linearGradient id="_未命名的渐变_4380-9" data-name="未命名的渐变 4380" x1="382.81" y1="3.75" x2="382.81" y2="25.27" gradientTransform="translate(439.94) rotate(-180) scale(1 -1)" xlink:href="#_未命名的渐变_4380"/>
    <linearGradient id="_未命名的渐变_4380-10" data-name="未命名的渐变 4380" x1="382.81" y1="17.31" x2="382.81" y2="38.84" gradientTransform="translate(439.94) rotate(-180) scale(1 -1)" xlink:href="#_未命名的渐变_4380"/>
    <linearGradient id="_未命名的渐变_4380-11" data-name="未命名的渐变 4380" x1="382.81" y1="30.88" x2="382.81" y2="52.41" gradientTransform="translate(439.94) rotate(-180) scale(1 -1)" xlink:href="#_未命名的渐变_4380"/>
    <linearGradient id="_未命名的渐变_4380-12" data-name="未命名的渐变 4380" x1="382.81" y1="44.45" x2="382.81" y2="65.98" gradientTransform="translate(439.94) rotate(-180) scale(1 -1)" xlink:href="#_未命名的渐变_4380"/>
    <linearGradient id="_未命名的渐变_4380-13" data-name="未命名的渐变 4380" x1="382.81" y1="58.02" x2="382.81" y2="79.54" gradientTransform="translate(439.94) rotate(-180) scale(1 -1)" xlink:href="#_未命名的渐变_4380"/>
    <linearGradient id="_未命名的渐变_4380-14" data-name="未命名的渐变 4380" x1="382.81" y1="71.58" x2="382.81" y2="93.11" gradientTransform="translate(439.94) rotate(-180) scale(1 -1)" xlink:href="#_未命名的渐变_4380"/>
    <linearGradient id="_未命名的渐变_4380-15" data-name="未命名的渐变 4380" x1="382.81" y1="85.15" x2="382.81" y2="106.68" gradientTransform="translate(439.94) rotate(-180) scale(1 -1)" xlink:href="#_未命名的渐变_4380"/>
    <linearGradient id="_未命名的渐变_4380-16" data-name="未命名的渐变 4380" x1="382.81" y1="98.72" x2="382.81" y2="120.25" gradientTransform="translate(439.94) rotate(-180) scale(1 -1)" xlink:href="#_未命名的渐变_4380"/>
    <linearGradient id="_未命名的渐变_34-2" data-name="未命名的渐变 34" x1="323.82" y1="62.53" x2="342.73" y2="62.53" gradientTransform="translate(-225.57 125.07) scale(1 -1)" xlink:href="#_未命名的渐变_34"/>
    <linearGradient id="_未命名的渐变_4746-17" data-name="未命名的渐变 4746" x1="430.24" y1="3.75" x2="430.24" y2="25.27" gradientTransform="translate(439.94) rotate(-180) scale(1 -1)" xlink:href="#_未命名的渐变_4746"/>
    <linearGradient id="_未命名的渐变_4746-18" data-name="未命名的渐变 4746" x1="430.35" y1="17.31" x2="430.35" y2="38.84" gradientTransform="translate(439.94) rotate(-180) scale(1 -1)" xlink:href="#_未命名的渐变_4746"/>
    <linearGradient id="_未命名的渐变_4746-19" data-name="未命名的渐变 4746" x1="430.46" y1="30.88" x2="430.46" y2="52.41" gradientTransform="translate(439.94) rotate(-180) scale(1 -1)" xlink:href="#_未命名的渐变_4746"/>
    <linearGradient id="_未命名的渐变_4746-20" data-name="未命名的渐变 4746" x1="430.58" y1="44.45" x2="430.58" y2="65.98" gradientTransform="translate(439.94) rotate(-180) scale(1 -1)" xlink:href="#_未命名的渐变_4746"/>
    <linearGradient id="_未命名的渐变_4746-21" data-name="未命名的渐变 4746" x1="430.69" y1="58.02" x2="430.69" y2="79.54" gradientTransform="translate(439.94) rotate(-180) scale(1 -1)" xlink:href="#_未命名的渐变_4746"/>
    <linearGradient id="_未命名的渐变_4746-22" data-name="未命名的渐变 4746" x1="430.81" y1="71.58" x2="430.81" y2="93.11" gradientTransform="translate(439.94) rotate(-180) scale(1 -1)" xlink:href="#_未命名的渐变_4746"/>
    <linearGradient id="_未命名的渐变_4746-23" data-name="未命名的渐变 4746" x1="430.92" y1="85.15" x2="430.92" y2="106.68" gradientTransform="translate(439.94) rotate(-180) scale(1 -1)" xlink:href="#_未命名的渐变_4746"/>
    <linearGradient id="_未命名的渐变_4746-24" data-name="未命名的渐变 4746" x1="431.03" y1="98.72" x2="431.03" y2="120.25" gradientTransform="translate(439.94) rotate(-180) scale(1 -1)" xlink:href="#_未命名的渐变_4746"/>
    <linearGradient id="_未命名的渐变_4746-25" data-name="未命名的渐变 4746" x1="435.09" y1="3.75" x2="435.09" y2="25.27" gradientTransform="translate(439.94) rotate(-180) scale(1 -1)" xlink:href="#_未命名的渐变_4746"/>
    <linearGradient id="_未命名的渐变_4746-26" data-name="未命名的渐变 4746" x1="435.17" y1="17.31" x2="435.17" y2="38.84" gradientTransform="translate(439.94) rotate(-180) scale(1 -1)" xlink:href="#_未命名的渐变_4746"/>
    <linearGradient id="_未命名的渐变_4746-27" data-name="未命名的渐变 4746" x1="435.24" y1="30.88" x2="435.24" y2="52.41" gradientTransform="translate(439.94) rotate(-180) scale(1 -1)" xlink:href="#_未命名的渐变_4746"/>
    <linearGradient id="_未命名的渐变_4746-28" data-name="未命名的渐变 4746" x1="435.32" y1="44.45" x2="435.32" y2="65.98" gradientTransform="translate(439.94) rotate(-180) scale(1 -1)" xlink:href="#_未命名的渐变_4746"/>
    <linearGradient id="_未命名的渐变_4746-29" data-name="未命名的渐变 4746" x1="435.4" y1="58.02" x2="435.4" y2="79.54" gradientTransform="translate(439.94) rotate(-180) scale(1 -1)" xlink:href="#_未命名的渐变_4746"/>
    <linearGradient id="_未命名的渐变_4746-30" data-name="未命名的渐变 4746" x1="435.48" y1="71.58" x2="435.48" y2="93.11" gradientTransform="translate(439.94) rotate(-180) scale(1 -1)" xlink:href="#_未命名的渐变_4746"/>
    <linearGradient id="_未命名的渐变_4746-31" data-name="未命名的渐变 4746" x1="435.56" y1="85.15" x2="435.56" y2="106.68" gradientTransform="translate(439.94) rotate(-180) scale(1 -1)" xlink:href="#_未命名的渐变_4746"/>
    <linearGradient id="_未命名的渐变_4746-32" data-name="未命名的渐变 4746" x1="435.64" y1="98.72" x2="435.64" y2="120.25" gradientTransform="translate(439.94) rotate(-180) scale(1 -1)" xlink:href="#_未命名的渐变_4746"/>
  </defs>
  <g id="_图层_1-2" data-name="图层 1">
    <line class="cls-9" x1="120.45" y1="119.36" x2="120.42" y2="5.17"/>
    <line class="cls-46" x1="120.96" y1="119.68" x2="120.9" y2="4.91"/>
    <rect class="cls-54" x="111.53" y="0" width="5.06" height="5.65"/>
    <rect class="cls-56" x="111.53" y="118.94" width="5.06" height="5.65"/>
    <rect class="cls-55" x="213.36" y="4.21" width="9.7" height="114.38"/>
    <line class="cls-46" x1="213.36" y1="4.21" x2="223.06" y2="4.21"/>
    <line class="cls-46" x1="213.36" y1="118.59" x2="223.06" y2="118.59"/>
    <g>
      <rect class="cls-14" x="120.44" y="8.97" width="91" height="9.9"/>
      <rect class="cls-7" x="120.44" y="22.53" width="91" height="9.9"/>
      <rect class="cls-44" x="120.44" y="36.1" width="91" height="9.9"/>
      <rect class="cls-3" x="120.44" y="49.67" width="91" height="9.9"/>
      <rect class="cls-36" x="120.44" y="63.24" width="91" height="9.9"/>
      <rect class="cls-48" x="120.44" y="76.8" width="91" height="9.9"/>
      <rect class="cls-10" x="120.44" y="90.37" width="91" height="9.9"/>
      <rect class="cls-49" x="120.44" y="103.94" width="91" height="9.9"/>
    </g>
    <rect class="cls-58" x="111.53" y="5.17" width="8.7" height="114.73"/>
    <line class="cls-46" x1="116.59" y1="4.91" x2="120.9" y2="4.91"/>
    <line class="cls-46" x1="116.66" y1="119.65" x2="120.96" y2="119.68"/>
    <line class="cls-9" x1="116.62" y1="119.07" x2="116.66" y2="119.65"/>
    <g>
      <rect class="cls-34" x="210.64" y="8.97" width="5.45" height="9.9"/>
      <rect class="cls-21" x="210.75" y="22.53" width="5.45" height="9.9"/>
      <rect class="cls-50" x="210.87" y="36.1" width="5.45" height="9.9"/>
      <rect class="cls-27" x="210.98" y="49.67" width="5.45" height="9.9"/>
      <rect class="cls-40" x="211.09" y="63.24" width="5.45" height="9.9"/>
      <rect class="cls-6" x="211.21" y="76.8" width="5.45" height="9.9"/>
      <rect class="cls-29" x="211.32" y="90.37" width="5.45" height="9.9"/>
      <rect class="cls-12" x="211.44" y="103.94" width="5.45" height="9.9"/>
    </g>
    <line class="cls-51" x1="216.33" y1="116.21" x2="216.33" y2="21.24"/>
    <g>
      <path class="cls-15" d="m216.33,8.97c4.79,1.43,5.23,8.07,0,9.9v-9.9Z"/>
      <path class="cls-41" d="m216.41,22.53c4.79,1.43,5.23,8.07,0,9.9v-9.9Z"/>
      <path class="cls-33" d="m216.49,36.1c4.79,1.43,5.23,8.07,0,9.9v-9.9Z"/>
      <path class="cls-30" d="m216.57,49.67c4.79,1.43,5.23,8.07,0,9.9v-9.9Z"/>
      <path class="cls-43" d="m216.65,63.24c4.79,1.43,5.23,8.07,0,9.9v-9.9Z"/>
      <path class="cls-5" d="m216.73,76.8c4.79,1.43,5.23,8.07,0,9.9v-9.9Z"/>
      <path class="cls-17" d="m216.81,90.37c4.79,1.43,5.23,8.07,0,9.9v-9.9Z"/>
      <path class="cls-22" d="m216.88,103.94c4.79,1.43,5.23,8.07,0,9.9v-9.9Z"/>
    </g>
    <line class="cls-51" x1="218.85" y1="110.51" x2="218.85" y2="15.53"/>
    <line class="cls-9" x1="102.61" y1="119.36" x2="102.64" y2="5.17"/>
    <line class="cls-46" x1="102.1" y1="119.68" x2="102.16" y2="4.91"/>
    <rect class="cls-59" x="106.47" y="0" width="5.06" height="5.65" transform="translate(218 5.65) rotate(-180)"/>
    <rect class="cls-57" x="106.47" y="118.94" width="5.06" height="5.65" transform="translate(218 243.52) rotate(-180)"/>
    <rect class="cls-52" x="0" y="4.21" width="9.7" height="114.38" transform="translate(9.7 122.8) rotate(-180)"/>
    <line class="cls-46" x1="9.7" y1="4.21" x2="0" y2="4.21"/>
    <line class="cls-46" x1="9.7" y1="118.59" x2="0" y2="118.59"/>
    <line class="cls-51" x1="57.13" y1="108.89" x2="57.13" y2="13.91"/>
    <g>
      <rect class="cls-11" x="11.63" y="8.97" width="91" height="9.9"/>
      <rect class="cls-20" x="11.63" y="22.53" width="91" height="9.9"/>
      <rect class="cls-45" x="11.63" y="36.1" width="91" height="9.9"/>
      <rect class="cls-19" x="11.63" y="49.67" width="91" height="9.9"/>
      <rect class="cls-47" x="11.63" y="63.24" width="91" height="9.9"/>
      <rect class="cls-2" x="11.63" y="76.8" width="91" height="9.9"/>
      <rect class="cls-35" x="11.63" y="90.37" width="91" height="9.9"/>
      <rect class="cls-8" x="11.63" y="103.94" width="91" height="9.9"/>
    </g>
    <rect class="cls-53" x="102.83" y="5.17" width="8.7" height="114.73" transform="translate(214.37 125.07) rotate(-180)"/>
    <line class="cls-46" x1="106.47" y1="4.91" x2="102.16" y2="4.91"/>
    <line class="cls-46" x1="106.41" y1="119.65" x2="102.1" y2="119.68"/>
    <line class="cls-9" x1="106.44" y1="119.07" x2="106.41" y2="119.65"/>
    <g>
      <rect class="cls-31" x="6.98" y="8.97" width="5.45" height="9.9"/>
      <rect class="cls-38" x="6.86" y="22.53" width="5.45" height="9.9"/>
      <rect class="cls-16" x="6.75" y="36.1" width="5.45" height="9.9"/>
      <rect class="cls-28" x="6.64" y="49.67" width="5.45" height="9.9"/>
      <rect class="cls-26" x="6.52" y="63.24" width="5.45" height="9.9"/>
      <rect class="cls-23" x="6.41" y="76.8" width="5.45" height="9.9"/>
      <rect class="cls-39" x="6.29" y="90.37" width="5.45" height="9.9"/>
      <rect class="cls-24" x="6.18" y="103.94" width="5.45" height="9.9"/>
    </g>
    <line class="cls-51" x1="6.73" y1="116.21" x2="6.73" y2="21.24"/>
    <g>
      <path class="cls-13" d="m6.73,8.97c-4.79,1.43-5.23,8.07,0,9.9v-9.9Z"/>
      <path class="cls-1" d="m6.65,22.53c-4.79,1.43-5.23,8.07,0,9.9v-9.9Z"/>
      <path class="cls-32" d="m6.57,36.1c-4.79,1.43-5.23,8.07,0,9.9v-9.9Z"/>
      <path class="cls-37" d="m6.49,49.67c-4.79,1.43-5.23,8.07,0,9.9v-9.9Z"/>
      <path class="cls-42" d="m6.42,63.24c-4.79,1.43-5.23,8.07,0,9.9v-9.9Z"/>
      <path class="cls-4" d="m6.34,76.8c-4.79,1.43-5.23,8.07,0,9.9v-9.9Z"/>
      <path class="cls-18" d="m6.26,90.37c-4.79,1.43-5.23,8.07,0,9.9v-9.9Z"/>
      <path class="cls-25" d="m6.18,103.94c-4.79,1.43-5.23,8.07,0,9.9v-9.9Z"/>
    </g>
    <line class="cls-51" x1="4.21" y1="110.51" x2="4.21" y2="15.53"/>
  </g>
</svg>