<?xml version="1.0" encoding="UTF-8"?>
<svg id="_图层_2" data-name="图层 2" xmlns="http://www.w3.org/2000/svg" xmlns:xlink="http://www.w3.org/1999/xlink" viewBox="0 0 118.38 185.77">
  <defs>
    <style>
      .cls-1 {
        fill: none;
        stroke: #b3b3b3;
        stroke-miterlimit: 10;
        stroke-width: .5px;
      }

      .cls-2 {
        fill: url(#_未命名的渐变_88);
        stroke-width: 0px;
      }
    </style>
    <linearGradient id="_未命名的渐变_88" data-name="未命名的渐变 88" x1="0" y1="92.89" x2="118.38" y2="92.89" gradientUnits="userSpaceOnUse">
      <stop offset="0" stop-color="#cecabb"/>
      <stop offset=".12" stop-color="#d2cec1"/>
      <stop offset=".28" stop-color="#dedcd2"/>
      <stop offset=".47" stop-color="#f3f2ef"/>
      <stop offset=".49" stop-color="#f6f5f3"/>
      <stop offset=".64" stop-color="#d9d6ca"/>
      <stop offset=".78" stop-color="#c3bfac"/>
      <stop offset=".91" stop-color="#b6b19a"/>
      <stop offset=".99" stop-color="#b2ac94"/>
    </linearGradient>
  </defs>
  <g id="_图层_1-2" data-name="图层 1">
    <g>
      <path class="cls-2" d="m106.54,20.89c-7.65-3.97-15.52-5.82-28.87-9.28l-.75-3.53-5.7-3.52-7.16-.08c-3.64-8-10.93-3.54-11.18,0-4.06-.04-8.38,0-8.38,0l-5.03,3.52s-.17-1.34-.34,3.62c-12.72.59-27.98,9.73-27.98,9.73C1.79,20.22,0,30.28,0,30.28l.34,145.55c.01,5.24,4.25,9.48,9.49,9.51l97.6.44c6.04.03,10.95-4.86,10.95-10.9V35.86c0-10.5-1.12-13.4-11.84-14.97ZM54.35,4.04c0-1.78,1.84-3.22,4.1-3.22s4.1,1.44,4.1,3.22h-8.21Z"/>
      <line class="cls-1" x1="39.19" y1="11.62" x2="77.72" y2="11.62"/>
    </g>
  </g>
</svg>