<?xml version="1.0" encoding="UTF-8"?>
<svg id="_图层_2" data-name="图层 2" xmlns="http://www.w3.org/2000/svg" xmlns:xlink="http://www.w3.org/1999/xlink" viewBox="0 0 538.1 120.31">
  <defs>
    <style>
      .cls-1 {
        fill: url(#_未命名的渐变_64-8);
      }

      .cls-1, .cls-2, .cls-3, .cls-4, .cls-5, .cls-6, .cls-7, .cls-8, .cls-9, .cls-10, .cls-11, .cls-12, .cls-13, .cls-14, .cls-15, .cls-16, .cls-17, .cls-18, .cls-19, .cls-20, .cls-21, .cls-22, .cls-23, .cls-24, .cls-25, .cls-26, .cls-27, .cls-28, .cls-29, .cls-30, .cls-31, .cls-32, .cls-33, .cls-34, .cls-35, .cls-36, .cls-37, .cls-38, .cls-39, .cls-40, .cls-41, .cls-42, .cls-43, .cls-44, .cls-45, .cls-46, .cls-47, .cls-48, .cls-49, .cls-50, .cls-51, .cls-52, .cls-53, .cls-54, .cls-55, .cls-56, .cls-57, .cls-58, .cls-59, .cls-60, .cls-61, .cls-62, .cls-63, .cls-64, .cls-65, .cls-66, .cls-67, .cls-68, .cls-69, .cls-70, .cls-71, .cls-72, .cls-73, .cls-74, .cls-75, .cls-76, .cls-77, .cls-78, .cls-79, .cls-80, .cls-81, .cls-82, .cls-83, .cls-84, .cls-85, .cls-86, .cls-87, .cls-88, .cls-89, .cls-90, .cls-91, .cls-92 {
        stroke-width: 0px;
      }

      .cls-2 {
        fill: url(#_未命名的渐变_64-51);
      }

      .cls-3 {
        fill: url(#_未命名的渐变_69-6);
      }

      .cls-4 {
        fill: url(#_未命名的渐变_64-78);
      }

      .cls-5 {
        fill: url(#_未命名的渐变_64-34);
      }

      .cls-6 {
        fill: url(#_未命名的渐变_64-50);
      }

      .cls-7 {
        fill: url(#_未命名的渐变_64-67);
      }

      .cls-8 {
        fill: url(#_未命名的渐变_64-32);
      }

      .cls-9 {
        fill: url(#_未命名的渐变_64-66);
      }

      .cls-10 {
        fill: url(#_未命名的渐变_64-69);
      }

      .cls-11 {
        fill: url(#_未命名的渐变_64-40);
      }

      .cls-12 {
        fill: url(#_未命名的渐变_69-5);
      }

      .cls-13 {
        fill: url(#_未命名的渐变_64-26);
      }

      .cls-14 {
        fill: url(#_未命名的渐变_64-56);
      }

      .cls-15 {
        fill: url(#_未命名的渐变_64-49);
      }

      .cls-16 {
        fill: url(#_未命名的渐变_64-58);
      }

      .cls-17 {
        fill: url(#_未命名的渐变_64-31);
      }

      .cls-18 {
        fill: url(#_未命名的渐变_64-64);
      }

      .cls-19 {
        fill: url(#_未命名的渐变_64-35);
      }

      .cls-20 {
        fill: url(#_未命名的渐变_64-15);
      }

      .cls-21 {
        fill: url(#_未命名的渐变_64-80);
      }

      .cls-22 {
        fill: url(#_未命名的渐变_64-19);
      }

      .cls-23 {
        fill: url(#_未命名的渐变_69-3);
      }

      .cls-24 {
        fill: url(#_未命名的渐变_64-24);
      }

      .cls-25 {
        fill: url(#_未命名的渐变_69-2);
      }

      .cls-26 {
        fill: url(#_未命名的渐变_64-5);
      }

      .cls-27 {
        fill: url(#_未命名的渐变_64-70);
      }

      .cls-28 {
        fill: url(#_未命名的渐变_64-79);
      }

      .cls-29 {
        fill: url(#_未命名的渐变_64-38);
      }

      .cls-30 {
        fill: url(#_未命名的渐变_64-71);
      }

      .cls-31 {
        fill: url(#_未命名的渐变_64-29);
      }

      .cls-32 {
        fill: url(#_未命名的渐变_69-10);
      }

      .cls-33 {
        fill: url(#_未命名的渐变_64-9);
      }

      .cls-34 {
        fill: url(#_未命名的渐变_64-52);
      }

      .cls-35 {
        fill: url(#_未命名的渐变_64-20);
      }

      .cls-36 {
        fill: url(#_未命名的渐变_64-27);
      }

      .cls-37 {
        fill: url(#_未命名的渐变_64-30);
      }

      .cls-38 {
        fill: url(#_未命名的渐变_64-41);
      }

      .cls-39 {
        fill: red;
      }

      .cls-40 {
        fill: url(#_未命名的渐变_64-11);
      }

      .cls-41 {
        fill: url(#_未命名的渐变_64-57);
      }

      .cls-42 {
        fill: url(#_未命名的渐变_64-25);
      }

      .cls-43 {
        fill: url(#_未命名的渐变_64-54);
      }

      .cls-44 {
        fill: url(#_未命名的渐变_64-2);
      }

      .cls-45 {
        fill: url(#_未命名的渐变_64-61);
      }

      .cls-46 {
        fill: url(#_未命名的渐变_64-47);
      }

      .cls-47 {
        fill: url(#_未命名的渐变_64-7);
      }

      .cls-48 {
        fill: url(#_未命名的渐变_64-77);
      }

      .cls-49 {
        fill: url(#_未命名的渐变_69-7);
      }

      .cls-50 {
        fill: url(#_未命名的渐变_64-60);
      }

      .cls-51 {
        fill: url(#_未命名的渐变_64-55);
      }

      .cls-52 {
        fill: url(#_未命名的渐变_64);
      }

      .cls-53 {
        fill: url(#_未命名的渐变_64-33);
      }

      .cls-54 {
        fill: url(#_未命名的渐变_64-6);
      }

      .cls-55 {
        fill: url(#_未命名的渐变_64-45);
      }

      .cls-56 {
        fill: url(#_未命名的渐变_64-13);
      }

      .cls-57 {
        fill: url(#_未命名的渐变_64-12);
      }

      .cls-58 {
        fill: url(#_未命名的渐变_64-53);
      }

      .cls-59 {
        fill: url(#_未命名的渐变_64-76);
      }

      .cls-60 {
        fill: url(#_未命名的渐变_64-75);
      }

      .cls-61 {
        fill: url(#_未命名的渐变_69-9);
      }

      .cls-62 {
        fill: url(#_未命名的渐变_64-74);
      }

      .cls-63 {
        fill: url(#_未命名的渐变_64-36);
      }

      .cls-64 {
        fill: url(#_未命名的渐变_64-68);
      }

      .cls-65 {
        fill: url(#_未命名的渐变_64-3);
      }

      .cls-66 {
        fill: url(#_未命名的渐变_64-18);
      }

      .cls-67 {
        fill: url(#_未命名的渐变_64-72);
      }

      .cls-68 {
        fill: url(#_未命名的渐变_64-17);
      }

      .cls-69 {
        fill: url(#_未命名的渐变_64-4);
      }

      .cls-70 {
        fill: url(#_未命名的渐变_64-43);
      }

      .cls-71 {
        fill: url(#_未命名的渐变_64-39);
      }

      .cls-72 {
        fill: url(#_未命名的渐变_64-44);
      }

      .cls-73 {
        fill: url(#_未命名的渐变_64-23);
      }

      .cls-74 {
        fill: url(#_未命名的渐变_64-21);
      }

      .cls-75 {
        fill: url(#_未命名的渐变_64-14);
      }

      .cls-76 {
        fill: url(#_未命名的渐变_64-28);
      }

      .cls-77 {
        fill: url(#_未命名的渐变_64-65);
      }

      .cls-78 {
        fill: url(#_未命名的渐变_69-4);
      }

      .cls-79 {
        fill: url(#_未命名的渐变_69-11);
      }

      .cls-80 {
        fill: url(#_未命名的渐变_64-48);
      }

      .cls-81 {
        fill: url(#_未命名的渐变_69-8);
      }

      .cls-82 {
        fill: url(#_未命名的渐变_64-62);
      }

      .cls-83 {
        fill: url(#_未命名的渐变_64-63);
      }

      .cls-84 {
        fill: url(#_未命名的渐变_64-10);
      }

      .cls-85 {
        fill: url(#_未命名的渐变_64-16);
      }

      .cls-86 {
        fill: url(#_未命名的渐变_64-73);
      }

      .cls-87 {
        fill: url(#_未命名的渐变_64-42);
      }

      .cls-88 {
        fill: url(#_未命名的渐变_64-22);
      }

      .cls-89 {
        fill: url(#_未命名的渐变_64-59);
      }

      .cls-90 {
        fill: url(#_未命名的渐变_64-37);
      }

      .cls-91 {
        fill: url(#_未命名的渐变_69);
      }

      .cls-92 {
        fill: url(#_未命名的渐变_64-46);
      }
    </style>
    <linearGradient id="_未命名的渐变_64" data-name="未命名的渐变 64" x1="31.59" y1="111.94" x2="49.19" y2="116.66" gradientTransform="translate(137.33 45.29) rotate(75.94)" gradientUnits="userSpaceOnUse">
      <stop offset="0" stop-color="red"/>
      <stop offset=".36" stop-color="#ffb5b5"/>
      <stop offset=".5" stop-color="#fff"/>
      <stop offset="1" stop-color="red"/>
    </linearGradient>
    <linearGradient id="_未命名的渐变_64-2" data-name="未命名的渐变 64" x1="36.03" y1="96.86" x2="53.63" y2="101.58" gradientTransform="translate(126.69 29.76) rotate(75.94)" xlink:href="#_未命名的渐变_64"/>
    <linearGradient id="_未命名的渐变_64-3" data-name="未命名的渐变 64" x1="40.47" y1="81.79" x2="58.07" y2="86.5" gradientTransform="translate(116.04 14.23) rotate(75.94)" xlink:href="#_未命名的渐变_64"/>
    <linearGradient id="_未命名的渐变_64-4" data-name="未命名的渐变 64" x1="44.92" y1="66.71" x2="62.51" y2="71.43" gradientTransform="translate(105.39 -1.29) rotate(75.94)" xlink:href="#_未命名的渐变_64"/>
    <linearGradient id="_未命名的渐变_64-5" data-name="未命名的渐变 64" x1="49.36" y1="51.63" x2="66.96" y2="56.35" gradientTransform="translate(94.75 -16.82) rotate(75.94)" xlink:href="#_未命名的渐变_64"/>
    <linearGradient id="_未命名的渐变_64-6" data-name="未命名的渐变 64" x1="53.8" y1="36.56" x2="71.4" y2="41.27" gradientTransform="translate(84.1 -32.35) rotate(75.94)" xlink:href="#_未命名的渐变_64"/>
    <linearGradient id="_未命名的渐变_64-7" data-name="未命名的渐变 64" x1="58.24" y1="21.48" x2="75.84" y2="26.2" gradientTransform="translate(73.45 -47.87) rotate(75.94)" xlink:href="#_未命名的渐变_64"/>
    <linearGradient id="_未命名的渐变_64-8" data-name="未命名的渐变 64" x1="62.68" y1="6.4" x2="80.28" y2="11.12" gradientTransform="translate(62.81 -63.4) rotate(75.94)" xlink:href="#_未命名的渐变_64"/>
    <linearGradient id="_未命名的渐变_69" data-name="未命名的渐变 69" x1="76.49" y1="46.5" x2="84.74" y2="74.18" gradientTransform="translate(.88 -1.18) rotate(.85)" gradientUnits="userSpaceOnUse">
      <stop offset="0" stop-color="#fbb03b"/>
      <stop offset="1" stop-color="red"/>
    </linearGradient>
    <linearGradient id="_未命名的渐变_64-9" data-name="未命名的渐变 64" x1="80.31" y1="109.94" x2="97.9" y2="114.65" gradientTransform="translate(172.31 -1.48) rotate(75.94)" xlink:href="#_未命名的渐变_64"/>
    <linearGradient id="_未命名的渐变_64-10" data-name="未命名的渐变 64" x1="84.75" y1="94.86" x2="102.35" y2="99.58" gradientTransform="translate(161.66 -17.01) rotate(75.94)" xlink:href="#_未命名的渐变_64"/>
    <linearGradient id="_未命名的渐变_64-11" data-name="未命名的渐变 64" x1="89.19" y1="79.78" x2="106.79" y2="84.5" gradientTransform="translate(151.02 -32.53) rotate(75.94)" xlink:href="#_未命名的渐变_64"/>
    <linearGradient id="_未命名的渐变_64-12" data-name="未命名的渐变 64" x1="93.63" y1="64.71" x2="111.23" y2="69.42" gradientTransform="translate(140.37 -48.06) rotate(75.94)" xlink:href="#_未命名的渐变_64"/>
    <linearGradient id="_未命名的渐变_64-13" data-name="未命名的渐变 64" x1="98.07" y1="49.63" x2="115.67" y2="54.35" gradientTransform="translate(129.72 -63.59) rotate(75.94)" xlink:href="#_未命名的渐变_64"/>
    <linearGradient id="_未命名的渐变_64-14" data-name="未命名的渐变 64" x1="102.52" y1="34.55" x2="120.11" y2="39.27" gradientTransform="translate(119.08 -79.11) rotate(75.94)" xlink:href="#_未命名的渐变_64"/>
    <linearGradient id="_未命名的渐变_64-15" data-name="未命名的渐变 64" x1="106.96" y1="19.48" x2="124.56" y2="24.19" gradientTransform="translate(108.43 -94.64) rotate(75.94)" xlink:href="#_未命名的渐变_64"/>
    <linearGradient id="_未命名的渐变_64-16" data-name="未命名的渐变 64" x1="111.4" y1="4.4" x2="129" y2="9.12" gradientTransform="translate(97.78 -110.17) rotate(75.94)" xlink:href="#_未命名的渐变_64"/>
    <linearGradient id="_未命名的渐变_69-2" data-name="未命名的渐变 69" x1="125.24" y1="45.77" x2="133.49" y2="73.46" xlink:href="#_未命名的渐变_69"/>
    <linearGradient id="_未命名的渐变_64-17" data-name="未命名的渐变 64" x1="129.02" y1="107.93" x2="146.62" y2="112.65" gradientTransform="translate(207.29 -48.25) rotate(75.94)" xlink:href="#_未命名的渐变_64"/>
    <linearGradient id="_未命名的渐变_64-18" data-name="未命名的渐变 64" x1="133.46" y1="92.86" x2="151.06" y2="97.57" gradientTransform="translate(196.64 -63.78) rotate(75.94)" xlink:href="#_未命名的渐变_64"/>
    <linearGradient id="_未命名的渐变_64-19" data-name="未命名的渐变 64" x1="137.91" y1="77.78" x2="155.5" y2="82.5" gradientTransform="translate(185.99 -79.3) rotate(75.94)" xlink:href="#_未命名的渐变_64"/>
    <linearGradient id="_未命名的渐变_64-20" data-name="未命名的渐变 64" x1="142.35" y1="62.7" x2="159.95" y2="67.42" gradientTransform="translate(175.35 -94.83) rotate(75.94)" xlink:href="#_未命名的渐变_64"/>
    <linearGradient id="_未命名的渐变_64-21" data-name="未命名的渐变 64" x1="146.79" y1="47.63" x2="164.39" y2="52.34" gradientTransform="translate(164.7 -110.36) rotate(75.94)" xlink:href="#_未命名的渐变_64"/>
    <linearGradient id="_未命名的渐变_64-22" data-name="未命名的渐变 64" x1="151.23" y1="32.55" x2="168.83" y2="37.26" gradientTransform="translate(154.05 -125.88) rotate(75.94)" xlink:href="#_未命名的渐变_64"/>
    <linearGradient id="_未命名的渐变_64-23" data-name="未命名的渐变 64" x1="155.67" y1="17.47" x2="173.27" y2="22.19" gradientTransform="translate(143.41 -141.41) rotate(75.94)" xlink:href="#_未命名的渐变_64"/>
    <linearGradient id="_未命名的渐变_64-24" data-name="未命名的渐变 64" x1="160.12" y1="2.4" x2="177.71" y2="7.11" gradientTransform="translate(132.76 -156.94) rotate(75.94)" xlink:href="#_未命名的渐变_64"/>
    <linearGradient id="_未命名的渐变_69-3" data-name="未命名的渐变 69" x1="173.99" y1="45.05" x2="182.25" y2="72.73" xlink:href="#_未命名的渐变_69"/>
    <linearGradient id="_未命名的渐变_64-25" data-name="未命名的渐变 64" x1="177.74" y1="105.93" x2="195.34" y2="110.64" gradientTransform="translate(242.26 -95.02) rotate(75.94)" xlink:href="#_未命名的渐变_64"/>
    <linearGradient id="_未命名的渐变_64-26" data-name="未命名的渐变 64" x1="182.18" y1="90.85" x2="199.78" y2="95.57" gradientTransform="translate(231.61 -110.55) rotate(75.94)" xlink:href="#_未命名的渐变_64"/>
    <linearGradient id="_未命名的渐变_64-27" data-name="未命名的渐变 64" x1="186.62" y1="75.78" x2="204.22" y2="80.49" gradientTransform="translate(220.97 -126.07) rotate(75.94)" xlink:href="#_未命名的渐变_64"/>
    <linearGradient id="_未命名的渐变_64-28" data-name="未命名的渐变 64" x1="191.06" y1="60.7" x2="208.66" y2="65.41" gradientTransform="translate(210.32 -141.6) rotate(75.94)" xlink:href="#_未命名的渐变_64"/>
    <linearGradient id="_未命名的渐变_64-29" data-name="未命名的渐变 64" x1="195.51" y1="45.62" x2="213.1" y2="50.34" gradientTransform="translate(199.68 -157.13) rotate(75.94)" xlink:href="#_未命名的渐变_64"/>
    <linearGradient id="_未命名的渐变_64-30" data-name="未命名的渐变 64" x1="199.95" y1="30.55" x2="217.55" y2="35.26" gradientTransform="translate(189.03 -172.65) rotate(75.94)" xlink:href="#_未命名的渐变_64"/>
    <linearGradient id="_未命名的渐变_64-31" data-name="未命名的渐变 64" x1="204.39" y1="15.47" x2="221.99" y2="20.18" gradientTransform="translate(178.38 -188.18) rotate(75.94)" xlink:href="#_未命名的渐变_64"/>
    <linearGradient id="_未命名的渐变_64-32" data-name="未命名的渐变 64" x1="208.83" y1=".39" x2="226.43" y2="5.11" gradientTransform="translate(167.74 -203.71) rotate(75.94)" xlink:href="#_未命名的渐变_64"/>
    <linearGradient id="_未命名的渐变_69-4" data-name="未命名的渐变 69" x1="222.75" y1="44.32" x2="231" y2="72.01" xlink:href="#_未命名的渐变_69"/>
    <linearGradient id="_未命名的渐变_64-33" data-name="未命名的渐变 64" x1="226.46" y1="103.93" x2="244.05" y2="108.64" gradientTransform="translate(277.24 -141.79) rotate(75.94)" xlink:href="#_未命名的渐变_64"/>
    <linearGradient id="_未命名的渐变_64-34" data-name="未命名的渐变 64" x1="230.9" y1="88.85" x2="248.5" y2="93.56" gradientTransform="translate(266.59 -157.32) rotate(75.94)" xlink:href="#_未命名的渐变_64"/>
    <linearGradient id="_未命名的渐变_64-35" data-name="未命名的渐变 64" x1="235.34" y1="73.77" x2="252.94" y2="78.49" gradientTransform="translate(255.94 -172.84) rotate(75.94)" xlink:href="#_未命名的渐变_64"/>
    <linearGradient id="_未命名的渐变_64-36" data-name="未命名的渐变 64" x1="239.78" y1="58.7" x2="257.38" y2="63.41" gradientTransform="translate(245.3 -188.37) rotate(75.94)" xlink:href="#_未命名的渐变_64"/>
    <linearGradient id="_未命名的渐变_64-37" data-name="未命名的渐变 64" x1="244.22" y1="43.62" x2="261.82" y2="48.33" gradientTransform="translate(234.65 -203.9) rotate(75.94)" xlink:href="#_未命名的渐变_64"/>
    <linearGradient id="_未命名的渐变_64-38" data-name="未命名的渐变 64" x1="248.66" y1="28.54" x2="266.26" y2="33.26" gradientTransform="translate(224 -219.42) rotate(75.94)" xlink:href="#_未命名的渐变_64"/>
    <linearGradient id="_未命名的渐变_64-39" data-name="未命名的渐变 64" x1="253.11" y1="13.47" x2="270.7" y2="18.18" gradientTransform="translate(213.36 -234.95) rotate(75.94)" xlink:href="#_未命名的渐变_64"/>
    <linearGradient id="_未命名的渐变_64-40" data-name="未命名的渐变 64" x1="257.55" y1="-1.61" x2="275.15" y2="3.1" gradientTransform="translate(202.71 -250.48) rotate(75.94)" xlink:href="#_未命名的渐变_64"/>
    <linearGradient id="_未命名的渐变_69-5" data-name="未命名的渐变 69" x1="271.5" y1="43.6" x2="279.75" y2="71.28" xlink:href="#_未命名的渐变_69"/>
    <linearGradient id="_未命名的渐变_64-41" data-name="未命名的渐变 64" x1="275.17" y1="101.92" x2="292.77" y2="106.64" gradientTransform="translate(312.21 -188.56) rotate(75.94)" xlink:href="#_未命名的渐变_64"/>
    <linearGradient id="_未命名的渐变_64-42" data-name="未命名的渐变 64" x1="279.61" y1="86.85" x2="297.21" y2="91.56" gradientTransform="translate(301.57 -204.09) rotate(75.94)" xlink:href="#_未命名的渐变_64"/>
    <linearGradient id="_未命名的渐变_64-43" data-name="未命名的渐变 64" x1="284.06" y1="71.77" x2="301.65" y2="76.48" gradientTransform="translate(290.92 -219.61) rotate(75.94)" xlink:href="#_未命名的渐变_64"/>
    <linearGradient id="_未命名的渐变_64-44" data-name="未命名的渐变 64" x1="288.5" y1="56.69" x2="306.1" y2="61.41" gradientTransform="translate(280.27 -235.14) rotate(75.94)" xlink:href="#_未命名的渐变_64"/>
    <linearGradient id="_未命名的渐变_64-45" data-name="未命名的渐变 64" x1="292.94" y1="41.62" x2="310.54" y2="46.33" gradientTransform="translate(269.63 -250.67) rotate(75.94)" xlink:href="#_未命名的渐变_64"/>
    <linearGradient id="_未命名的渐变_64-46" data-name="未命名的渐变 64" x1="297.38" y1="26.54" x2="314.98" y2="31.25" gradientTransform="translate(258.98 -266.19) rotate(75.94)" xlink:href="#_未命名的渐变_64"/>
    <linearGradient id="_未命名的渐变_64-47" data-name="未命名的渐变 64" x1="301.82" y1="11.46" x2="319.42" y2="16.18" gradientTransform="translate(248.33 -281.72) rotate(75.94)" xlink:href="#_未命名的渐变_64"/>
    <linearGradient id="_未命名的渐变_64-48" data-name="未命名的渐变 64" x1="306.27" y1="-3.62" x2="323.86" y2="1.1" gradientTransform="translate(237.69 -297.25) rotate(75.94)" xlink:href="#_未命名的渐变_64"/>
    <linearGradient id="_未命名的渐变_69-6" data-name="未命名的渐变 69" x1="320.25" y1="42.87" x2="328.5" y2="70.56" xlink:href="#_未命名的渐变_69"/>
    <linearGradient id="_未命名的渐变_64-49" data-name="未命名的渐变 64" x1="323.89" y1="99.92" x2="341.49" y2="104.63" gradientTransform="translate(347.19 -235.33) rotate(75.94)" xlink:href="#_未命名的渐变_64"/>
    <linearGradient id="_未命名的渐变_64-50" data-name="未命名的渐变 64" x1="328.33" y1="84.84" x2="345.93" y2="89.56" gradientTransform="translate(336.54 -250.86) rotate(75.94)" xlink:href="#_未命名的渐变_64"/>
    <linearGradient id="_未命名的渐变_64-51" data-name="未命名的渐变 64" x1="332.77" y1="69.76" x2="350.37" y2="74.48" gradientTransform="translate(325.9 -266.38) rotate(75.94)" xlink:href="#_未命名的渐变_64"/>
    <linearGradient id="_未命名的渐变_64-52" data-name="未命名的渐变 64" x1="337.21" y1="54.69" x2="354.81" y2="59.4" gradientTransform="translate(315.25 -281.91) rotate(75.94)" xlink:href="#_未命名的渐变_64"/>
    <linearGradient id="_未命名的渐变_64-53" data-name="未命名的渐变 64" x1="341.66" y1="39.61" x2="359.25" y2="44.33" gradientTransform="translate(304.6 -297.44) rotate(75.94)" xlink:href="#_未命名的渐变_64"/>
    <linearGradient id="_未命名的渐变_64-54" data-name="未命名的渐变 64" x1="346.1" y1="24.53" x2="363.7" y2="29.25" gradientTransform="translate(293.96 -312.96) rotate(75.94)" xlink:href="#_未命名的渐变_64"/>
    <linearGradient id="_未命名的渐变_64-55" data-name="未命名的渐变 64" x1="350.54" y1="9.46" x2="368.14" y2="14.17" gradientTransform="translate(283.31 -328.49) rotate(75.94)" xlink:href="#_未命名的渐变_64"/>
    <linearGradient id="_未命名的渐变_64-56" data-name="未命名的渐变 64" x1="354.98" y1="-5.62" x2="372.58" y2="-.9" gradientTransform="translate(272.66 -344.02) rotate(75.94)" xlink:href="#_未命名的渐变_64"/>
    <linearGradient id="_未命名的渐变_69-7" data-name="未命名的渐变 69" x1="369" y1="42.15" x2="377.26" y2="69.83" xlink:href="#_未命名的渐变_69"/>
    <linearGradient id="_未命名的渐变_64-57" data-name="未命名的渐变 64" x1="372.6" y1="97.91" x2="390.2" y2="102.63" gradientTransform="translate(382.17 -282.1) rotate(75.94)" xlink:href="#_未命名的渐变_64"/>
    <linearGradient id="_未命名的渐变_64-58" data-name="未命名的渐变 64" x1="377.05" y1="82.84" x2="394.64" y2="87.55" gradientTransform="translate(371.52 -297.62) rotate(75.94)" xlink:href="#_未命名的渐变_64"/>
    <linearGradient id="_未命名的渐变_64-59" data-name="未命名的渐变 64" x1="381.49" y1="67.76" x2="399.09" y2="72.48" gradientTransform="translate(360.87 -313.15) rotate(75.94)" xlink:href="#_未命名的渐变_64"/>
    <linearGradient id="_未命名的渐变_64-60" data-name="未命名的渐变 64" x1="385.93" y1="52.68" x2="403.53" y2="57.4" gradientTransform="translate(350.23 -328.68) rotate(75.94)" xlink:href="#_未命名的渐变_64"/>
    <linearGradient id="_未命名的渐变_64-61" data-name="未命名的渐变 64" x1="390.37" y1="37.61" x2="407.97" y2="42.32" gradientTransform="translate(339.58 -344.2) rotate(75.94)" xlink:href="#_未命名的渐变_64"/>
    <linearGradient id="_未命名的渐变_64-62" data-name="未命名的渐变 64" x1="394.81" y1="22.53" x2="412.41" y2="27.25" gradientTransform="translate(328.93 -359.73) rotate(75.94)" xlink:href="#_未命名的渐变_64"/>
    <linearGradient id="_未命名的渐变_64-63" data-name="未命名的渐变 64" x1="399.26" y1="7.45" x2="416.85" y2="12.17" gradientTransform="translate(318.29 -375.26) rotate(75.94)" xlink:href="#_未命名的渐变_64"/>
    <linearGradient id="_未命名的渐变_64-64" data-name="未命名的渐变 64" x1="403.7" y1="-7.62" x2="421.3" y2="-2.91" gradientTransform="translate(307.64 -390.78) rotate(75.94)" xlink:href="#_未命名的渐变_64"/>
    <linearGradient id="_未命名的渐变_69-8" data-name="未命名的渐变 69" x1="417.76" y1="41.42" x2="426.01" y2="69.11" xlink:href="#_未命名的渐变_69"/>
    <linearGradient id="_未命名的渐变_64-65" data-name="未命名的渐变 64" x1="421.32" y1="95.91" x2="438.92" y2="100.63" gradientTransform="translate(417.14 -328.87) rotate(75.94)" xlink:href="#_未命名的渐变_64"/>
    <linearGradient id="_未命名的渐变_64-66" data-name="未命名的渐变 64" x1="425.76" y1="80.83" x2="443.36" y2="85.55" gradientTransform="translate(406.5 -344.39) rotate(75.94)" xlink:href="#_未命名的渐变_64"/>
    <linearGradient id="_未命名的渐变_64-67" data-name="未命名的渐变 64" x1="430.2" y1="65.76" x2="447.8" y2="70.47" gradientTransform="translate(395.85 -359.92) rotate(75.94)" xlink:href="#_未命名的渐变_64"/>
    <linearGradient id="_未命名的渐变_64-68" data-name="未命名的渐变 64" x1="434.65" y1="50.68" x2="452.24" y2="55.4" gradientTransform="translate(385.2 -375.45) rotate(75.94)" xlink:href="#_未命名的渐变_64"/>
    <linearGradient id="_未命名的渐变_64-69" data-name="未命名的渐变 64" x1="439.09" y1="35.6" x2="456.69" y2="40.32" gradientTransform="translate(374.56 -390.97) rotate(75.94)" xlink:href="#_未命名的渐变_64"/>
    <linearGradient id="_未命名的渐变_64-70" data-name="未命名的渐变 64" x1="443.53" y1="20.53" x2="461.13" y2="25.24" gradientTransform="translate(363.91 -406.5) rotate(75.94)" xlink:href="#_未命名的渐变_64"/>
    <linearGradient id="_未命名的渐变_64-71" data-name="未命名的渐变 64" x1="447.97" y1="5.45" x2="465.57" y2="10.17" gradientTransform="translate(353.26 -422.03) rotate(75.94)" xlink:href="#_未命名的渐变_64"/>
    <linearGradient id="_未命名的渐变_64-72" data-name="未命名的渐变 64" x1="452.41" y1="-9.63" x2="470.01" y2="-4.91" gradientTransform="translate(342.62 -437.55) rotate(75.94)" xlink:href="#_未命名的渐变_64"/>
    <linearGradient id="_未命名的渐变_69-9" data-name="未命名的渐变 69" x1="466.51" y1="40.7" x2="474.76" y2="68.39" xlink:href="#_未命名的渐变_69"/>
    <linearGradient id="_未命名的渐变_64-73" data-name="未命名的渐变 64" x1="470.04" y1="93.91" x2="487.64" y2="98.62" gradientTransform="translate(452.12 -375.64) rotate(75.94)" xlink:href="#_未命名的渐变_64"/>
    <linearGradient id="_未命名的渐变_64-74" data-name="未命名的渐变 64" x1="474.48" y1="78.83" x2="492.08" y2="83.55" gradientTransform="translate(441.47 -391.16) rotate(75.94)" xlink:href="#_未命名的渐变_64"/>
    <linearGradient id="_未命名的渐变_64-75" data-name="未命名的渐变 64" x1="478.92" y1="63.75" x2="496.52" y2="68.47" gradientTransform="translate(430.82 -406.69) rotate(75.94)" xlink:href="#_未命名的渐变_64"/>
    <linearGradient id="_未命名的渐变_64-76" data-name="未命名的渐变 64" x1="483.36" y1="48.68" x2="500.96" y2="53.39" gradientTransform="translate(420.18 -422.22) rotate(75.94)" xlink:href="#_未命名的渐变_64"/>
    <linearGradient id="_未命名的渐变_64-77" data-name="未命名的渐变 64" x1="487.8" y1="33.6" x2="505.4" y2="38.32" gradientTransform="translate(409.53 -437.74) rotate(75.94)" xlink:href="#_未命名的渐变_64"/>
    <linearGradient id="_未命名的渐变_64-78" data-name="未命名的渐变 64" x1="492.25" y1="18.52" x2="509.84" y2="23.24" gradientTransform="translate(398.89 -453.27) rotate(75.94)" xlink:href="#_未命名的渐变_64"/>
    <linearGradient id="_未命名的渐变_64-79" data-name="未命名的渐变 64" x1="496.69" y1="3.45" x2="514.29" y2="8.16" gradientTransform="translate(388.24 -468.8) rotate(75.94)" xlink:href="#_未命名的渐变_64"/>
    <linearGradient id="_未命名的渐变_64-80" data-name="未命名的渐变 64" x1="501.13" y1="-11.63" x2="518.73" y2="-6.91" gradientTransform="translate(377.59 -484.32) rotate(75.94)" xlink:href="#_未命名的渐变_64"/>
    <linearGradient id="_未命名的渐变_69-10" data-name="未命名的渐变 69" x1="515.26" y1="39.98" x2="523.51" y2="67.66" xlink:href="#_未命名的渐变_69"/>
    <linearGradient id="_未命名的渐变_69-11" data-name="未命名的渐变 69" x1="27.32" y1="47.74" x2="35.57" y2="75.43" xlink:href="#_未命名的渐变_69"/>
  </defs>
  <g id="_图层_1-2" data-name="图层 1">
    <rect class="cls-39" y="50.54" width="538.1" height="13.33"/>
    <g>
      <g>
        <g>
          <rect class="cls-52" x="30.52" y="103.22" width="11.51" height="18.03" transform="translate(-81.64 115.31) rotate(-73.58)"/>
          <rect class="cls-44" x="35.58" y="88.34" width="11.51" height="18.03" transform="translate(-63.74 109.49) rotate(-73.58)"/>
          <rect class="cls-65" x="40.63" y="73.46" width="11.51" height="18.03" transform="translate(-45.84 103.66) rotate(-73.58)"/>
          <rect class="cls-69" x="45.69" y="58.58" width="11.51" height="18.03" transform="translate(-27.93 97.84) rotate(-73.58)"/>
          <rect class="cls-26" x="50.75" y="43.7" width="11.51" height="18.03" transform="translate(-10.03 92.02) rotate(-73.58)"/>
          <rect class="cls-54" x="55.81" y="28.82" width="11.51" height="18.03" transform="translate(7.87 86.19) rotate(-73.58)"/>
          <rect class="cls-47" x="60.87" y="13.93" width="11.51" height="18.03" transform="translate(25.78 80.37) rotate(-73.58)"/>
          <rect class="cls-1" x="65.92" y="-.95" width="11.51" height="18.03" transform="translate(43.68 74.54) rotate(-73.58)"/>
        </g>
        <polygon class="cls-91" points="82.33 4.87 71.02 39.83 77.07 109.55 89.07 77.25 82.33 4.87"/>
      </g>
      <g>
        <g>
          <rect class="cls-33" x="79.28" y="103.22" width="11.51" height="18.03" transform="translate(-46.67 162.08) rotate(-73.58)"/>
          <rect class="cls-84" x="84.33" y="88.34" width="11.51" height="18.03" transform="translate(-28.76 156.26) rotate(-73.58)"/>
          <rect class="cls-40" x="89.39" y="73.46" width="11.51" height="18.03" transform="translate(-10.86 150.43) rotate(-73.58)"/>
          <rect class="cls-57" x="94.45" y="58.58" width="11.51" height="18.03" transform="translate(7.04 144.61) rotate(-73.58)"/>
          <rect class="cls-56" x="99.51" y="43.7" width="11.51" height="18.03" transform="translate(24.95 138.78) rotate(-73.58)"/>
          <rect class="cls-75" x="104.57" y="28.82" width="11.51" height="18.03" transform="translate(42.85 132.96) rotate(-73.58)"/>
          <rect class="cls-20" x="109.62" y="13.93" width="11.51" height="18.03" transform="translate(60.75 127.14) rotate(-73.58)"/>
          <rect class="cls-85" x="114.68" y="-.95" width="11.51" height="18.03" transform="translate(78.65 121.31) rotate(-73.58)"/>
        </g>
        <polygon class="cls-25" points="131.09 4.87 119.78 39.83 125.83 109.55 137.83 77.25 131.09 4.87"/>
      </g>
      <g>
        <g>
          <rect class="cls-68" x="128.03" y="103.22" width="11.51" height="18.03" transform="translate(-11.69 208.85) rotate(-73.58)"/>
          <rect class="cls-66" x="133.09" y="88.34" width="11.51" height="18.03" transform="translate(6.21 203.03) rotate(-73.58)"/>
          <rect class="cls-22" x="138.15" y="73.46" width="11.51" height="18.03" transform="translate(24.12 197.2) rotate(-73.58)"/>
          <rect class="cls-35" x="143.21" y="58.58" width="11.51" height="18.03" transform="translate(42.02 191.38) rotate(-73.58)"/>
          <rect class="cls-74" x="148.26" y="43.7" width="11.51" height="18.03" transform="translate(59.92 185.55) rotate(-73.58)"/>
          <rect class="cls-88" x="153.32" y="28.82" width="11.51" height="18.03" transform="translate(77.82 179.73) rotate(-73.58)"/>
          <rect class="cls-73" x="158.38" y="13.93" width="11.51" height="18.03" transform="translate(95.73 173.91) rotate(-73.58)"/>
          <rect class="cls-24" x="163.44" y="-.95" width="11.51" height="18.03" transform="translate(113.63 168.08) rotate(-73.58)"/>
        </g>
        <polygon class="cls-23" points="179.84 4.87 168.54 39.83 174.59 109.55 186.59 77.25 179.84 4.87"/>
      </g>
      <g>
        <g>
          <rect class="cls-42" x="176.79" y="103.22" width="11.51" height="18.03" transform="translate(23.29 255.62) rotate(-73.58)"/>
          <rect class="cls-13" x="181.85" y="88.34" width="11.51" height="18.03" transform="translate(41.19 249.79) rotate(-73.58)"/>
          <rect class="cls-36" x="186.91" y="73.46" width="11.51" height="18.03" transform="translate(59.09 243.97) rotate(-73.58)"/>
          <rect class="cls-76" x="191.96" y="58.58" width="11.51" height="18.03" transform="translate(77 238.15) rotate(-73.58)"/>
          <rect class="cls-31" x="197.02" y="43.7" width="11.51" height="18.03" transform="translate(94.9 232.32) rotate(-73.58)"/>
          <rect class="cls-37" x="202.08" y="28.82" width="11.51" height="18.03" transform="translate(112.8 226.5) rotate(-73.58)"/>
          <rect class="cls-17" x="207.14" y="13.93" width="11.51" height="18.03" transform="translate(130.7 220.68) rotate(-73.58)"/>
          <rect class="cls-8" x="212.2" y="-.95" width="11.51" height="18.03" transform="translate(148.61 214.85) rotate(-73.58)"/>
        </g>
        <polygon class="cls-78" points="228.6 4.87 217.29 39.83 223.35 109.55 235.35 77.25 228.6 4.87"/>
      </g>
      <g>
        <g>
          <rect class="cls-53" x="225.55" y="103.22" width="11.51" height="18.03" transform="translate(58.26 302.39) rotate(-73.58)"/>
          <rect class="cls-5" x="230.61" y="88.34" width="11.51" height="18.03" transform="translate(76.17 296.56) rotate(-73.58)"/>
          <rect class="cls-19" x="235.66" y="73.46" width="11.51" height="18.03" transform="translate(94.07 290.74) rotate(-73.58)"/>
          <rect class="cls-63" x="240.72" y="58.58" width="11.51" height="18.03" transform="translate(111.97 284.92) rotate(-73.58)"/>
          <rect class="cls-90" x="245.78" y="43.7" width="11.51" height="18.03" transform="translate(129.87 279.09) rotate(-73.58)"/>
          <rect class="cls-29" x="250.84" y="28.82" width="11.51" height="18.03" transform="translate(147.78 273.27) rotate(-73.58)"/>
          <rect class="cls-71" x="255.9" y="13.93" width="11.51" height="18.03" transform="translate(165.68 267.45) rotate(-73.58)"/>
          <rect class="cls-11" x="260.95" y="-.95" width="11.51" height="18.03" transform="translate(183.58 261.62) rotate(-73.58)"/>
        </g>
        <polygon class="cls-12" points="277.36 4.87 266.05 39.83 272.1 109.55 284.1 77.25 277.36 4.87"/>
      </g>
      <g>
        <g>
          <rect class="cls-38" x="274.31" y="103.22" width="11.51" height="18.03" transform="translate(93.24 349.16) rotate(-73.58)"/>
          <rect class="cls-87" x="279.36" y="88.34" width="11.51" height="18.03" transform="translate(111.14 343.33) rotate(-73.58)"/>
          <rect class="cls-70" x="284.42" y="73.46" width="11.51" height="18.03" transform="translate(129.04 337.51) rotate(-73.58)"/>
          <rect class="cls-72" x="289.48" y="58.58" width="11.51" height="18.03" transform="translate(146.95 331.69) rotate(-73.58)"/>
          <rect class="cls-55" x="294.54" y="43.7" width="11.51" height="18.03" transform="translate(164.85 325.86) rotate(-73.58)"/>
          <rect class="cls-92" x="299.6" y="28.82" width="11.51" height="18.03" transform="translate(182.75 320.04) rotate(-73.58)"/>
          <rect class="cls-46" x="304.65" y="13.93" width="11.51" height="18.03" transform="translate(200.66 314.21) rotate(-73.58)"/>
          <rect class="cls-80" x="309.71" y="-.95" width="11.51" height="18.03" transform="translate(218.56 308.39) rotate(-73.58)"/>
        </g>
        <polygon class="cls-3" points="326.12 4.87 314.81 39.83 320.86 109.55 332.86 77.25 326.12 4.87"/>
      </g>
      <g>
        <g>
          <rect class="cls-15" x="323.06" y="103.22" width="11.51" height="18.03" transform="translate(128.22 395.93) rotate(-73.58)"/>
          <rect class="cls-6" x="328.12" y="88.34" width="11.51" height="18.03" transform="translate(146.12 390.1) rotate(-73.58)"/>
          <rect class="cls-2" x="333.18" y="73.46" width="11.51" height="18.03" transform="translate(164.02 384.28) rotate(-73.58)"/>
          <rect class="cls-34" x="338.24" y="58.58" width="11.51" height="18.03" transform="translate(181.92 378.46) rotate(-73.58)"/>
          <rect class="cls-58" x="343.3" y="43.7" width="11.51" height="18.03" transform="translate(199.83 372.63) rotate(-73.58)"/>
          <rect class="cls-43" x="348.35" y="28.82" width="11.51" height="18.03" transform="translate(217.73 366.81) rotate(-73.58)"/>
          <rect class="cls-51" x="353.41" y="13.93" width="11.51" height="18.03" transform="translate(235.63 360.98) rotate(-73.58)"/>
          <rect class="cls-14" x="358.47" y="-.95" width="11.51" height="18.03" transform="translate(253.53 355.16) rotate(-73.58)"/>
        </g>
        <polygon class="cls-49" points="374.87 4.87 363.57 39.83 369.62 109.55 381.62 77.25 374.87 4.87"/>
      </g>
      <g>
        <g>
          <rect class="cls-41" x="371.82" y="103.22" width="11.51" height="18.03" transform="translate(163.19 442.7) rotate(-73.58)"/>
          <rect class="cls-16" x="376.88" y="88.34" width="11.51" height="18.03" transform="translate(181.09 436.87) rotate(-73.58)"/>
          <rect class="cls-89" x="381.94" y="73.46" width="11.51" height="18.03" transform="translate(199 431.05) rotate(-73.58)"/>
          <rect class="cls-50" x="387" y="58.58" width="11.51" height="18.03" transform="translate(216.9 425.22) rotate(-73.58)"/>
          <rect class="cls-45" x="392.05" y="43.7" width="11.51" height="18.03" transform="translate(234.8 419.4) rotate(-73.58)"/>
          <rect class="cls-82" x="397.11" y="28.82" width="11.51" height="18.03" transform="translate(252.71 413.58) rotate(-73.58)"/>
          <rect class="cls-83" x="402.17" y="13.93" width="11.51" height="18.03" transform="translate(270.61 407.75) rotate(-73.58)"/>
          <rect class="cls-18" x="407.23" y="-.95" width="11.51" height="18.03" transform="translate(288.51 401.93) rotate(-73.58)"/>
        </g>
        <polygon class="cls-81" points="423.63 4.87 412.33 39.83 418.38 109.55 430.38 77.25 423.63 4.87"/>
      </g>
      <g>
        <g>
          <rect class="cls-77" x="420.58" y="103.22" width="11.51" height="18.03" transform="translate(198.17 489.46) rotate(-73.58)"/>
          <rect class="cls-9" x="425.64" y="88.34" width="11.51" height="18.03" transform="translate(216.07 483.64) rotate(-73.58)"/>
          <rect class="cls-7" x="430.69" y="73.46" width="11.51" height="18.03" transform="translate(233.97 477.82) rotate(-73.58)"/>
          <rect class="cls-64" x="435.75" y="58.58" width="11.51" height="18.03" transform="translate(251.88 471.99) rotate(-73.58)"/>
          <rect class="cls-10" x="440.81" y="43.7" width="11.51" height="18.03" transform="translate(269.78 466.17) rotate(-73.58)"/>
          <rect class="cls-27" x="445.87" y="28.82" width="11.51" height="18.03" transform="translate(287.68 460.35) rotate(-73.58)"/>
          <rect class="cls-30" x="450.93" y="13.93" width="11.51" height="18.03" transform="translate(305.58 454.52) rotate(-73.58)"/>
          <rect class="cls-67" x="455.98" y="-.95" width="11.51" height="18.03" transform="translate(323.49 448.7) rotate(-73.58)"/>
        </g>
        <polygon class="cls-61" points="472.39 4.87 461.08 39.83 467.14 109.55 479.14 77.25 472.39 4.87"/>
      </g>
      <g>
        <g>
          <rect class="cls-86" x="469.34" y="103.22" width="11.51" height="18.03" transform="translate(233.14 536.23) rotate(-73.58)"/>
          <rect class="cls-62" x="474.39" y="88.34" width="11.51" height="18.03" transform="translate(251.05 530.41) rotate(-73.58)"/>
          <rect class="cls-60" x="479.45" y="73.46" width="11.51" height="18.03" transform="translate(268.95 524.59) rotate(-73.58)"/>
          <rect class="cls-59" x="484.51" y="58.58" width="11.51" height="18.03" transform="translate(286.85 518.76) rotate(-73.58)"/>
          <rect class="cls-48" x="489.57" y="43.7" width="11.51" height="18.03" transform="translate(304.75 512.94) rotate(-73.58)"/>
          <rect class="cls-4" x="494.63" y="28.82" width="11.51" height="18.03" transform="translate(322.66 507.12) rotate(-73.58)"/>
          <rect class="cls-28" x="499.68" y="13.93" width="11.51" height="18.03" transform="translate(340.56 501.29) rotate(-73.58)"/>
          <rect class="cls-21" x="504.74" y="-.95" width="11.51" height="18.03" transform="translate(358.46 495.47) rotate(-73.58)"/>
        </g>
        <polygon class="cls-32" points="521.15 4.87 509.84 39.83 515.89 109.55 527.89 77.25 521.15 4.87"/>
      </g>
    </g>
    <polygon class="cls-79" points="33.14 5.38 21.84 40.34 27.89 110.06 39.89 77.76 33.14 5.38"/>
  </g>
</svg>