<?xml version="1.0" encoding="UTF-8"?>
<svg id="_图层_2" data-name="图层 2" xmlns="http://www.w3.org/2000/svg" xmlns:xlink="http://www.w3.org/1999/xlink" viewBox="0 0 538.1 120.31">
  <defs>
    <style>
      .cls-1 {
        fill: url(#_未命名的渐变_2094-44);
      }

      .cls-1, .cls-2, .cls-3, .cls-4, .cls-5, .cls-6, .cls-7, .cls-8, .cls-9, .cls-10, .cls-11, .cls-12, .cls-13, .cls-14, .cls-15, .cls-16, .cls-17, .cls-18, .cls-19, .cls-20, .cls-21, .cls-22, .cls-23, .cls-24, .cls-25, .cls-26, .cls-27, .cls-28, .cls-29, .cls-30, .cls-31, .cls-32, .cls-33, .cls-34, .cls-35, .cls-36, .cls-37, .cls-38, .cls-39, .cls-40, .cls-41, .cls-42, .cls-43, .cls-44, .cls-45, .cls-46, .cls-47, .cls-48, .cls-49, .cls-50, .cls-51, .cls-52, .cls-53, .cls-54, .cls-55, .cls-56, .cls-57, .cls-58, .cls-59, .cls-60, .cls-61, .cls-62, .cls-63, .cls-64, .cls-65, .cls-66, .cls-67, .cls-68, .cls-69, .cls-70, .cls-71, .cls-72, .cls-73, .cls-74, .cls-75, .cls-76, .cls-77, .cls-78, .cls-79, .cls-80, .cls-81, .cls-82, .cls-83, .cls-84, .cls-85, .cls-86, .cls-87, .cls-88, .cls-89, .cls-90, .cls-91, .cls-92 {
        stroke-width: 0px;
      }

      .cls-2 {
        fill: url(#_未命名的渐变_3278-8);
      }

      .cls-3 {
        fill: url(#_未命名的渐变_2094-4);
      }

      .cls-4 {
        fill: url(#_未命名的渐变_3270);
      }

      .cls-5 {
        fill: url(#_未命名的渐变_2094-14);
      }

      .cls-6 {
        fill: url(#_未命名的渐变_3274);
      }

      .cls-7 {
        fill: url(#_未命名的渐变_2094-43);
      }

      .cls-8 {
        fill: url(#_未命名的渐变_2094-8);
      }

      .cls-9 {
        fill: url(#_未命名的渐变_3278-6);
      }

      .cls-10 {
        fill: url(#_未命名的渐变_2094-45);
      }

      .cls-11 {
        fill: url(#_未命名的渐变_2094-33);
      }

      .cls-12 {
        fill: url(#_未命名的渐变_2094-10);
      }

      .cls-13 {
        fill: url(#_未命名的渐变_2094-17);
      }

      .cls-14 {
        fill: url(#_未命名的渐变_2094-29);
      }

      .cls-15 {
        fill: url(#_未命名的渐变_2094-60);
      }

      .cls-16 {
        fill: url(#_未命名的渐变_2094-41);
      }

      .cls-17 {
        fill: url(#_未命名的渐变_2094-59);
      }

      .cls-18 {
        fill: url(#_未命名的渐变_2094-51);
      }

      .cls-19 {
        fill: url(#_未命名的渐变_3278-4);
      }

      .cls-20 {
        fill: url(#_未命名的渐变_2094-13);
      }

      .cls-21 {
        fill: url(#_未命名的渐变_2094-7);
      }

      .cls-22 {
        fill: url(#_未命名的渐变_2094-52);
      }

      .cls-23 {
        fill: url(#_未命名的渐变_3271);
      }

      .cls-24 {
        fill: url(#_未命名的渐变_2094-24);
      }

      .cls-25 {
        fill: url(#_未命名的渐变_3278-2);
      }

      .cls-26 {
        fill: url(#_未命名的渐变_2094-61);
      }

      .cls-27 {
        fill: url(#_未命名的渐变_2094-36);
      }

      .cls-28 {
        fill: url(#_未命名的渐变_2094-26);
      }

      .cls-29 {
        fill: url(#_未命名的渐变_2094-50);
      }

      .cls-30 {
        fill: url(#_未命名的渐变_2094-42);
      }

      .cls-31 {
        fill: url(#_未命名的渐变_2094-19);
      }

      .cls-32 {
        fill: url(#_未命名的渐变_2094-39);
      }

      .cls-33 {
        fill: url(#_未命名的渐变_2094-40);
      }

      .cls-34 {
        fill: url(#_未命名的渐变_2094-3);
      }

      .cls-35 {
        fill: url(#_未命名的渐变_2094-46);
      }

      .cls-36 {
        fill: url(#_未命名的渐变_3279-5);
      }

      .cls-37 {
        fill: url(#_未命名的渐变_2020);
      }

      .cls-38 {
        fill: url(#_未命名的渐变_2094-55);
      }

      .cls-39 {
        fill: url(#_未命名的渐变_2094-5);
      }

      .cls-40 {
        fill: url(#_未命名的渐变_2094-53);
      }

      .cls-41 {
        fill: url(#_未命名的渐变_2094-28);
      }

      .cls-42 {
        fill: url(#_未命名的渐变_3278-3);
      }

      .cls-43 {
        fill: url(#_未命名的渐变_3279-2);
      }

      .cls-44 {
        fill: url(#_未命名的渐变_2094-57);
      }

      .cls-45 {
        fill: url(#_未命名的渐变_2094-16);
      }

      .cls-46 {
        fill: url(#_未命名的渐变_2094-31);
      }

      .cls-47 {
        fill: url(#_未命名的渐变_3213);
      }

      .cls-48 {
        fill: url(#_未命名的渐变_2094-49);
      }

      .cls-49 {
        fill: url(#_未命名的渐变_1902);
      }

      .cls-50 {
        fill: url(#_未命名的渐变_2094);
      }

      .cls-51 {
        fill: url(#_未命名的渐变_2094-12);
      }

      .cls-52 {
        fill: url(#_未命名的渐变_2094-54);
      }

      .cls-53 {
        fill: url(#_未命名的渐变_3278-5);
      }

      .cls-54 {
        fill: url(#_未命名的渐变_2094-15);
      }

      .cls-55 {
        fill: url(#_未命名的渐变_3279-4);
      }

      .cls-56 {
        fill: url(#_未命名的渐变_2094-6);
      }

      .cls-57 {
        fill: url(#_未命名的渐变_3279-3);
      }

      .cls-58 {
        fill: url(#_未命名的渐变_2094-47);
      }

      .cls-59 {
        fill: url(#_未命名的渐变_2094-27);
      }

      .cls-60 {
        fill: url(#_未命名的渐变_2094-25);
      }

      .cls-61 {
        fill: url(#_未命名的渐变_3269);
      }

      .cls-62 {
        fill: url(#_未命名的渐变_2094-11);
      }

      .cls-63 {
        fill: url(#_未命名的渐变_2094-35);
      }

      .cls-64 {
        fill: url(#_未命名的渐变_2094-37);
      }

      .cls-65 {
        fill: url(#_未命名的渐变_3279-7);
      }

      .cls-66 {
        fill: url(#_未命名的渐变_2094-18);
      }

      .cls-67 {
        fill: url(#_未命名的渐变_2094-38);
      }

      .cls-68 {
        fill: url(#_未命名的渐变_2094-58);
      }

      .cls-69 {
        fill: url(#_未命名的渐变_2094-34);
      }

      .cls-70 {
        fill: url(#_未命名的渐变_2094-9);
      }

      .cls-71 {
        fill: url(#_未命名的渐变_3279-6);
      }

      .cls-72 {
        fill: url(#_未命名的渐变_3277);
      }

      .cls-73 {
        fill: url(#_未命名的渐变_3272);
      }

      .cls-74 {
        fill: url(#_未命名的渐变_2094-21);
      }

      .cls-75 {
        fill: url(#_未命名的渐变_3279);
      }

      .cls-76 {
        fill: url(#_未命名的渐变_3278-7);
      }

      .cls-77 {
        fill: url(#_未命名的渐变_3279-8);
      }

      .cls-78 {
        fill: url(#_未命名的渐变_3197);
      }

      .cls-79 {
        fill: #39b54a;
      }

      .cls-80 {
        fill: url(#_未命名的渐变_3275);
      }

      .cls-81 {
        fill: url(#_未命名的渐变_2212);
      }

      .cls-82 {
        fill: url(#_未命名的渐变_2094-2);
      }

      .cls-83 {
        fill: url(#_未命名的渐变_2094-30);
      }

      .cls-84 {
        fill: url(#_未命名的渐变_3276);
      }

      .cls-85 {
        fill: url(#_未命名的渐变_3278);
      }

      .cls-86 {
        fill: url(#_未命名的渐变_2094-23);
      }

      .cls-87 {
        fill: url(#_未命名的渐变_2094-22);
      }

      .cls-88 {
        fill: url(#_未命名的渐变_3273);
      }

      .cls-89 {
        fill: url(#_未命名的渐变_2094-56);
      }

      .cls-90 {
        fill: url(#_未命名的渐变_2094-48);
      }

      .cls-91 {
        fill: url(#_未命名的渐变_2094-32);
      }

      .cls-92 {
        fill: url(#_未命名的渐变_2094-20);
      }
    </style>
    <linearGradient id="_未命名的渐变_2020" data-name="未命名的渐变 2020" x1="23.52" y1="96.4" x2="41.12" y2="101.12" gradientTransform="translate(124.22 56.89) rotate(75.94)" gradientUnits="userSpaceOnUse">
      <stop offset="0" stop-color="lime"/>
      <stop offset=".36" stop-color="#b5ffb5"/>
      <stop offset=".5" stop-color="#fff"/>
      <stop offset="1" stop-color="#8cc63f"/>
    </linearGradient>
    <linearGradient id="_未命名的渐变_2094" data-name="未命名的渐变 2094" x1="27.97" y1="81.32" x2="45.56" y2="86.04" gradientTransform="translate(113.57 41.36) rotate(75.94)" gradientUnits="userSpaceOnUse">
      <stop offset="0" stop-color="lime"/>
      <stop offset=".36" stop-color="#b5ffb5"/>
      <stop offset=".5" stop-color="#fff"/>
      <stop offset="1" stop-color="#8cc63f"/>
    </linearGradient>
    <linearGradient id="_未命名的渐变_2094-2" data-name="未命名的渐变 2094" x1="32.41" y1="66.25" x2="50.01" y2="70.96" gradientTransform="translate(102.92 25.83) rotate(75.94)" xlink:href="#_未命名的渐变_2094"/>
    <linearGradient id="_未命名的渐变_2094-3" data-name="未命名的渐变 2094" x1="36.85" y1="51.17" x2="54.45" y2="55.88" gradientTransform="translate(92.28 10.31) rotate(75.94)" xlink:href="#_未命名的渐变_2094"/>
    <linearGradient id="_未命名的渐变_2094-4" data-name="未命名的渐变 2094" x1="41.29" y1="36.09" x2="58.89" y2="40.81" gradientTransform="translate(81.63 -5.22) rotate(75.94)" xlink:href="#_未命名的渐变_2094"/>
    <linearGradient id="_未命名的渐变_2094-5" data-name="未命名的渐变 2094" x1="45.73" y1="21.02" x2="63.33" y2="25.73" gradientTransform="translate(70.99 -20.75) rotate(75.94)" xlink:href="#_未命名的渐变_2094"/>
    <linearGradient id="_未命名的渐变_2094-6" data-name="未命名的渐变 2094" x1="50.18" y1="5.94" x2="67.77" y2="10.65" gradientTransform="translate(60.34 -36.27) rotate(75.94)" xlink:href="#_未命名的渐变_2094"/>
    <linearGradient id="_未命名的渐变_1902" data-name="未命名的渐变 1902" x1="54.62" y1="-9.14" x2="72.22" y2="-4.42" gradientTransform="translate(49.69 -51.8) rotate(75.94)" gradientUnits="userSpaceOnUse">
      <stop offset="0" stop-color="lime"/>
      <stop offset=".36" stop-color="#b5ffb5"/>
      <stop offset=".5" stop-color="#fff"/>
      <stop offset="1" stop-color="#8cc63f"/>
    </linearGradient>
    <linearGradient id="_未命名的渐变_3197" data-name="未命名的渐变 3197" x1="79.41" y1="56.01" x2="83.62" y2="73.56" gradientUnits="userSpaceOnUse">
      <stop offset="0" stop-color="lime"/>
      <stop offset="1" stop-color="#20d70d"/>
    </linearGradient>
    <linearGradient id="_未命名的渐变_3279" data-name="未命名的渐变 3279" x1="72.24" y1="94.4" x2="89.84" y2="99.11" gradientTransform="translate(159.19 10.12) rotate(75.94)" gradientUnits="userSpaceOnUse">
      <stop offset="0" stop-color="lime"/>
      <stop offset=".36" stop-color="#b5ffb5"/>
      <stop offset=".5" stop-color="#fff"/>
      <stop offset="1" stop-color="#8cc63f"/>
      <stop offset="1" stop-color="#8cc63f"/>
    </linearGradient>
    <linearGradient id="_未命名的渐变_2094-7" data-name="未命名的渐变 2094" x1="76.68" y1="79.32" x2="94.28" y2="84.03" gradientTransform="translate(148.55 -5.41) rotate(75.94)" xlink:href="#_未命名的渐变_2094"/>
    <linearGradient id="_未命名的渐变_2094-8" data-name="未命名的渐变 2094" x1="81.13" y1="64.24" x2="98.72" y2="68.96" gradientTransform="translate(137.9 -20.94) rotate(75.94)" xlink:href="#_未命名的渐变_2094"/>
    <linearGradient id="_未命名的渐变_2094-9" data-name="未命名的渐变 2094" x1="85.57" y1="49.17" x2="103.16" y2="53.88" gradientTransform="translate(127.25 -36.46) rotate(75.94)" xlink:href="#_未命名的渐变_2094"/>
    <linearGradient id="_未命名的渐变_2094-10" data-name="未命名的渐变 2094" x1="90.01" y1="34.09" x2="107.61" y2="38.8" gradientTransform="translate(116.61 -51.99) rotate(75.94)" xlink:href="#_未命名的渐变_2094"/>
    <linearGradient id="_未命名的渐变_2094-11" data-name="未命名的渐变 2094" x1="94.45" y1="19.01" x2="112.05" y2="23.73" gradientTransform="translate(105.96 -67.52) rotate(75.94)" xlink:href="#_未命名的渐变_2094"/>
    <linearGradient id="_未命名的渐变_2094-12" data-name="未命名的渐变 2094" x1="98.89" y1="3.94" x2="116.49" y2="8.65" gradientTransform="translate(95.31 -83.04) rotate(75.94)" xlink:href="#_未命名的渐变_2094"/>
    <linearGradient id="_未命名的渐变_3278" data-name="未命名的渐变 3278" x1="103.33" y1="-11.14" x2="120.93" y2="-6.43" gradientTransform="translate(84.67 -98.57) rotate(75.94)" gradientUnits="userSpaceOnUse">
      <stop offset="0" stop-color="lime"/>
      <stop offset=".36" stop-color="#b5ffb5"/>
      <stop offset=".5" stop-color="#fff"/>
      <stop offset="1" stop-color="#8cc63f"/>
      <stop offset="1" stop-color="#8cc63f"/>
    </linearGradient>
    <linearGradient id="_未命名的渐变_3277" data-name="未命名的渐变 3277" x1="127.59" y1="54.21" x2="132.19" y2="72.92" gradientTransform="translate(.4 .5) rotate(.09)" gradientUnits="userSpaceOnUse">
      <stop offset="0" stop-color="lime"/>
      <stop offset="1" stop-color="#1ed70c"/>
    </linearGradient>
    <linearGradient id="_未命名的渐变_3279-2" data-name="未命名的渐变 3279" x1="120.96" y1="92.39" x2="138.56" y2="97.11" gradientTransform="translate(194.17 -36.65) rotate(75.94)" xlink:href="#_未命名的渐变_3279"/>
    <linearGradient id="_未命名的渐变_2094-13" data-name="未命名的渐变 2094" x1="125.4" y1="77.32" x2="143" y2="82.03" gradientTransform="translate(183.52 -52.18) rotate(75.94)" xlink:href="#_未命名的渐变_2094"/>
    <linearGradient id="_未命名的渐变_2094-14" data-name="未命名的渐变 2094" x1="129.84" y1="62.24" x2="147.44" y2="66.95" gradientTransform="translate(172.88 -67.7) rotate(75.94)" xlink:href="#_未命名的渐变_2094"/>
    <linearGradient id="_未命名的渐变_2094-15" data-name="未命名的渐变 2094" x1="134.28" y1="47.16" x2="151.88" y2="51.88" gradientTransform="translate(162.23 -83.23) rotate(75.94)" xlink:href="#_未命名的渐变_2094"/>
    <linearGradient id="_未命名的渐变_2094-16" data-name="未命名的渐变 2094" x1="138.73" y1="32.09" x2="156.32" y2="36.8" gradientTransform="translate(151.58 -98.76) rotate(75.94)" xlink:href="#_未命名的渐变_2094"/>
    <linearGradient id="_未命名的渐变_2094-17" data-name="未命名的渐变 2094" x1="143.17" y1="17.01" x2="160.77" y2="21.72" gradientTransform="translate(140.94 -114.28) rotate(75.94)" xlink:href="#_未命名的渐变_2094"/>
    <linearGradient id="_未命名的渐变_2094-18" data-name="未命名的渐变 2094" x1="147.61" y1="1.93" x2="165.21" y2="6.65" gradientTransform="translate(130.29 -129.81) rotate(75.94)" xlink:href="#_未命名的渐变_2094"/>
    <linearGradient id="_未命名的渐变_3278-2" data-name="未命名的渐变 3278" x1="152.05" y1="-13.14" x2="169.65" y2="-8.43" gradientTransform="translate(119.64 -145.34) rotate(75.94)" xlink:href="#_未命名的渐变_3278"/>
    <linearGradient id="_未命名的渐变_3276" data-name="未命名的渐变 3276" x1="175.75" y1="52.26" x2="180.76" y2="72.12" gradientTransform="translate(.81 1) rotate(.19)" gradientUnits="userSpaceOnUse">
      <stop offset="0" stop-color="lime"/>
      <stop offset="1" stop-color="#1dd60b"/>
    </linearGradient>
    <linearGradient id="_未命名的渐变_3279-3" data-name="未命名的渐变 3279" x1="169.67" y1="90.39" x2="187.27" y2="95.1" gradientTransform="translate(229.15 -83.42) rotate(75.94)" xlink:href="#_未命名的渐变_3279"/>
    <linearGradient id="_未命名的渐变_2094-19" data-name="未命名的渐变 2094" x1="174.12" y1="75.31" x2="191.71" y2="80.03" gradientTransform="translate(218.5 -98.95) rotate(75.94)" xlink:href="#_未命名的渐变_2094"/>
    <linearGradient id="_未命名的渐变_2094-20" data-name="未命名的渐变 2094" x1="178.56" y1="60.24" x2="196.16" y2="64.95" gradientTransform="translate(207.85 -114.47) rotate(75.94)" xlink:href="#_未命名的渐变_2094"/>
    <linearGradient id="_未命名的渐变_2094-21" data-name="未命名的渐变 2094" x1="183" y1="45.16" x2="200.6" y2="49.87" gradientTransform="translate(197.21 -130) rotate(75.94)" xlink:href="#_未命名的渐变_2094"/>
    <linearGradient id="_未命名的渐变_2094-22" data-name="未命名的渐变 2094" x1="187.44" y1="30.08" x2="205.04" y2="34.8" gradientTransform="translate(186.56 -145.53) rotate(75.94)" xlink:href="#_未命名的渐变_2094"/>
    <linearGradient id="_未命名的渐变_2094-23" data-name="未命名的渐变 2094" x1="191.88" y1="15" x2="209.48" y2="19.72" gradientTransform="translate(175.91 -161.05) rotate(75.94)" xlink:href="#_未命名的渐变_2094"/>
    <linearGradient id="_未命名的渐变_2094-24" data-name="未命名的渐变 2094" x1="196.33" y1="-.07" x2="213.92" y2="4.64" gradientTransform="translate(165.27 -176.58) rotate(75.94)" xlink:href="#_未命名的渐变_2094"/>
    <linearGradient id="_未命名的渐变_3278-3" data-name="未命名的渐变 3278" x1="200.77" y1="-15.15" x2="218.37" y2="-10.43" gradientTransform="translate(154.62 -192.11) rotate(75.94)" xlink:href="#_未命名的渐变_3278"/>
    <linearGradient id="_未命名的渐变_3275" data-name="未命名的渐变 3275" x1="223.89" y1="50.16" x2="229.33" y2="71.16" gradientTransform="translate(1.21 1.51) rotate(.28)" gradientUnits="userSpaceOnUse">
      <stop offset="0" stop-color="lime"/>
      <stop offset="1" stop-color="#1bd60a"/>
    </linearGradient>
    <linearGradient id="_未命名的渐变_3279-4" data-name="未命名的渐变 3279" x1="218.39" y1="88.38" x2="235.99" y2="93.1" gradientTransform="translate(264.12 -130.19) rotate(75.94)" xlink:href="#_未命名的渐变_3279"/>
    <linearGradient id="_未命名的渐变_2094-25" data-name="未命名的渐变 2094" x1="222.83" y1="73.31" x2="240.43" y2="78.02" gradientTransform="translate(253.48 -145.72) rotate(75.94)" xlink:href="#_未命名的渐变_2094"/>
    <linearGradient id="_未命名的渐变_2094-26" data-name="未命名的渐变 2094" x1="227.27" y1="58.23" x2="244.87" y2="62.95" gradientTransform="translate(242.83 -161.24) rotate(75.94)" xlink:href="#_未命名的渐变_2094"/>
    <linearGradient id="_未命名的渐变_2094-27" data-name="未命名的渐变 2094" x1="231.72" y1="43.15" x2="249.31" y2="47.87" gradientTransform="translate(232.18 -176.77) rotate(75.94)" xlink:href="#_未命名的渐变_2094"/>
    <linearGradient id="_未命名的渐变_2094-28" data-name="未命名的渐变 2094" x1="236.16" y1="28.08" x2="253.76" y2="32.79" gradientTransform="translate(221.54 -192.3) rotate(75.94)" xlink:href="#_未命名的渐变_2094"/>
    <linearGradient id="_未命名的渐变_2094-29" data-name="未命名的渐变 2094" x1="240.6" y1="13" x2="258.2" y2="17.72" gradientTransform="translate(210.89 -207.82) rotate(75.94)" xlink:href="#_未命名的渐变_2094"/>
    <linearGradient id="_未命名的渐变_2094-30" data-name="未命名的渐变 2094" x1="245.04" y1="-2.08" x2="262.64" y2="2.64" gradientTransform="translate(200.24 -223.35) rotate(75.94)" xlink:href="#_未命名的渐变_2094"/>
    <linearGradient id="_未命名的渐变_3278-4" data-name="未命名的渐变 3278" x1="249.48" y1="-17.15" x2="267.08" y2="-12.44" gradientTransform="translate(189.6 -238.88) rotate(75.94)" xlink:href="#_未命名的渐变_3278"/>
    <linearGradient id="_未命名的渐变_3274" data-name="未命名的渐变 3274" x1="272.02" y1="47.9" x2="277.9" y2="70.04" gradientTransform="translate(1.62 2.01) rotate(.38)" gradientUnits="userSpaceOnUse">
      <stop offset="0" stop-color="lime"/>
      <stop offset="1" stop-color="#19d509"/>
    </linearGradient>
    <linearGradient id="_未命名的渐变_3279-5" data-name="未命名的渐变 3279" x1="267.11" y1="86.38" x2="284.7" y2="91.1" gradientTransform="translate(299.1 -176.96) rotate(75.94)" xlink:href="#_未命名的渐变_3279"/>
    <linearGradient id="_未命名的渐变_2094-31" data-name="未命名的渐变 2094" x1="271.55" y1="71.3" x2="289.15" y2="76.02" gradientTransform="translate(288.45 -192.49) rotate(75.94)" xlink:href="#_未命名的渐变_2094"/>
    <linearGradient id="_未命名的渐变_2094-32" data-name="未命名的渐变 2094" x1="275.99" y1="56.23" x2="293.59" y2="60.94" gradientTransform="translate(277.8 -208.01) rotate(75.94)" xlink:href="#_未命名的渐变_2094"/>
    <linearGradient id="_未命名的渐变_2094-33" data-name="未命名的渐变 2094" x1="280.43" y1="41.15" x2="298.03" y2="45.87" gradientTransform="translate(267.16 -223.54) rotate(75.94)" xlink:href="#_未命名的渐变_2094"/>
    <linearGradient id="_未命名的渐变_2094-34" data-name="未命名的渐变 2094" x1="284.87" y1="26.07" x2="302.47" y2="30.79" gradientTransform="translate(256.51 -239.07) rotate(75.94)" xlink:href="#_未命名的渐变_2094"/>
    <linearGradient id="_未命名的渐变_2094-35" data-name="未命名的渐变 2094" x1="289.32" y1="11" x2="306.91" y2="15.71" gradientTransform="translate(245.87 -254.59) rotate(75.94)" xlink:href="#_未命名的渐变_2094"/>
    <linearGradient id="_未命名的渐变_2094-36" data-name="未命名的渐变 2094" x1="293.76" y1="-4.08" x2="311.36" y2=".64" gradientTransform="translate(235.22 -270.12) rotate(75.94)" xlink:href="#_未命名的渐变_2094"/>
    <linearGradient id="_未命名的渐变_3278-5" data-name="未命名的渐变 3278" x1="298.2" y1="-19.16" x2="315.8" y2="-14.44" gradientTransform="translate(224.57 -285.65) rotate(75.94)" xlink:href="#_未命名的渐变_3278"/>
    <linearGradient id="_未命名的渐变_3273" data-name="未命名的渐变 3273" x1="320.14" y1="45.49" x2="326.46" y2="68.76" gradientTransform="translate(2.02 2.51) rotate(.47)" gradientUnits="userSpaceOnUse">
      <stop offset="0" stop-color="lime"/>
      <stop offset="1" stop-color="#18d507"/>
    </linearGradient>
    <linearGradient id="_未命名的渐变_3279-6" data-name="未命名的渐变 3279" x1="315.82" y1="84.38" x2="333.42" y2="89.09" gradientTransform="translate(334.07 -223.73) rotate(75.94)" xlink:href="#_未命名的渐变_3279"/>
    <linearGradient id="_未命名的渐变_2094-37" data-name="未命名的渐变 2094" x1="320.27" y1="69.3" x2="337.86" y2="74.02" gradientTransform="translate(323.43 -239.26) rotate(75.94)" xlink:href="#_未命名的渐变_2094"/>
    <linearGradient id="_未命名的渐变_2094-38" data-name="未命名的渐变 2094" x1="324.71" y1="54.22" x2="342.3" y2="58.94" gradientTransform="translate(312.78 -254.78) rotate(75.94)" xlink:href="#_未命名的渐变_2094"/>
    <linearGradient id="_未命名的渐变_2094-39" data-name="未命名的渐变 2094" x1="329.15" y1="39.15" x2="346.75" y2="43.86" gradientTransform="translate(302.13 -270.31) rotate(75.94)" xlink:href="#_未命名的渐变_2094"/>
    <linearGradient id="_未命名的渐变_2094-40" data-name="未命名的渐变 2094" x1="333.59" y1="24.07" x2="351.19" y2="28.79" gradientTransform="translate(291.49 -285.84) rotate(75.94)" xlink:href="#_未命名的渐变_2094"/>
    <linearGradient id="_未命名的渐变_2094-41" data-name="未命名的渐变 2094" x1="338.03" y1="8.99" x2="355.63" y2="13.71" gradientTransform="translate(280.84 -301.36) rotate(75.94)" xlink:href="#_未命名的渐变_2094"/>
    <linearGradient id="_未命名的渐变_2094-42" data-name="未命名的渐变 2094" x1="342.47" y1="-6.08" x2="360.07" y2="-1.37" gradientTransform="translate(270.2 -316.89) rotate(75.94)" xlink:href="#_未命名的渐变_2094"/>
    <linearGradient id="_未命名的渐变_3278-6" data-name="未命名的渐变 3278" x1="346.92" y1="-21.16" x2="364.51" y2="-16.44" gradientTransform="translate(259.55 -332.42) rotate(75.94)" xlink:href="#_未命名的渐变_3278"/>
    <linearGradient id="_未命名的渐变_3272" data-name="未命名的渐变 3272" x1="368.23" y1="42.92" x2="375.02" y2="67.31" gradientTransform="translate(2.42 3.01) rotate(.57)" gradientUnits="userSpaceOnUse">
      <stop offset="0" stop-color="lime"/>
      <stop offset="1" stop-color="#16d406"/>
    </linearGradient>
    <linearGradient id="_未命名的渐变_3279-7" data-name="未命名的渐变 3279" x1="364.54" y1="82.37" x2="382.14" y2="87.09" gradientTransform="translate(369.05 -270.5) rotate(75.94)" xlink:href="#_未命名的渐变_3279"/>
    <linearGradient id="_未命名的渐变_2094-43" data-name="未命名的渐变 2094" x1="368.98" y1="67.3" x2="386.58" y2="72.01" gradientTransform="translate(358.4 -286.02) rotate(75.94)" xlink:href="#_未命名的渐变_2094"/>
    <linearGradient id="_未命名的渐变_2094-44" data-name="未命名的渐变 2094" x1="373.42" y1="52.22" x2="391.02" y2="56.94" gradientTransform="translate(347.76 -301.55) rotate(75.94)" xlink:href="#_未命名的渐变_2094"/>
    <linearGradient id="_未命名的渐变_2094-45" data-name="未命名的渐变 2094" x1="377.87" y1="37.14" x2="395.46" y2="41.86" gradientTransform="translate(337.11 -317.08) rotate(75.94)" xlink:href="#_未命名的渐变_2094"/>
    <linearGradient id="_未命名的渐变_2094-46" data-name="未命名的渐变 2094" x1="382.31" y1="22.07" x2="399.91" y2="26.78" gradientTransform="translate(326.46 -332.6) rotate(75.94)" xlink:href="#_未命名的渐变_2094"/>
    <linearGradient id="_未命名的渐变_2094-47" data-name="未命名的渐变 2094" x1="386.75" y1="6.99" x2="404.35" y2="11.71" gradientTransform="translate(315.82 -348.13) rotate(75.94)" xlink:href="#_未命名的渐变_2094"/>
    <linearGradient id="_未命名的渐变_2094-48" data-name="未命名的渐变 2094" x1="391.19" y1="-8.09" x2="408.79" y2="-3.37" gradientTransform="translate(305.17 -363.66) rotate(75.94)" xlink:href="#_未命名的渐变_2094"/>
    <linearGradient id="_未命名的渐变_3278-7" data-name="未命名的渐变 3278" x1="395.63" y1="-23.16" x2="413.23" y2="-18.45" gradientTransform="translate(294.52 -379.18) rotate(75.94)" xlink:href="#_未命名的渐变_3278"/>
    <linearGradient id="_未命名的渐变_3271" data-name="未命名的渐变 3271" x1="416.31" y1="40.21" x2="423.58" y2="65.7" gradientTransform="translate(2.83 3.52) rotate(.66)" gradientUnits="userSpaceOnUse">
      <stop offset="0" stop-color="lime"/>
      <stop offset="1" stop-color="#14d405"/>
    </linearGradient>
    <linearGradient id="_未命名的渐变_3279-8" data-name="未命名的渐变 3279" x1="413.26" y1="80.37" x2="430.85" y2="85.09" gradientTransform="translate(404.03 -317.27) rotate(75.94)" xlink:href="#_未命名的渐变_3279"/>
    <linearGradient id="_未命名的渐变_2094-49" data-name="未命名的渐变 2094" x1="417.7" y1="65.29" x2="435.3" y2="70.01" gradientTransform="translate(393.38 -332.79) rotate(75.94)" xlink:href="#_未命名的渐变_2094"/>
    <linearGradient id="_未命名的渐变_2094-50" data-name="未命名的渐变 2094" x1="422.14" y1="50.22" x2="439.74" y2="54.93" gradientTransform="translate(382.73 -348.32) rotate(75.94)" xlink:href="#_未命名的渐变_2094"/>
    <linearGradient id="_未命名的渐变_2094-51" data-name="未命名的渐变 2094" x1="426.58" y1="35.14" x2="444.18" y2="39.85" gradientTransform="translate(372.09 -363.85) rotate(75.94)" xlink:href="#_未命名的渐变_2094"/>
    <linearGradient id="_未命名的渐变_2094-52" data-name="未命名的渐变 2094" x1="431.02" y1="20.06" x2="448.62" y2="24.78" gradientTransform="translate(361.44 -379.37) rotate(75.94)" xlink:href="#_未命名的渐变_2094"/>
    <linearGradient id="_未命名的渐变_2094-53" data-name="未命名的渐变 2094" x1="435.47" y1="4.99" x2="453.06" y2="9.7" gradientTransform="translate(350.79 -394.9) rotate(75.94)" xlink:href="#_未命名的渐变_2094"/>
    <linearGradient id="_未命名的渐变_2094-54" data-name="未命名的渐变 2094" x1="439.91" y1="-10.09" x2="457.51" y2="-5.38" gradientTransform="translate(340.15 -410.43) rotate(75.94)" xlink:href="#_未命名的渐变_2094"/>
    <linearGradient id="_未命名的渐变_3278-8" data-name="未命名的渐变 3278" x1="444.35" y1="-25.17" x2="461.95" y2="-20.45" gradientTransform="translate(329.5 -425.95) rotate(75.94)" xlink:href="#_未命名的渐变_3278"/>
    <linearGradient id="_未命名的渐变_3270" data-name="未命名的渐变 3270" x1="464.37" y1="37.34" x2="472.13" y2="63.93" gradientTransform="translate(3.23 4.02) rotate(.76)" gradientUnits="userSpaceOnUse">
      <stop offset="0" stop-color="lime"/>
      <stop offset="1" stop-color="#13d304"/>
    </linearGradient>
    <linearGradient id="_未命名的渐变_2212" data-name="未命名的渐变 2212" x1="461.97" y1="78.37" x2="479.57" y2="83.08" gradientTransform="translate(439 -364.04) rotate(75.94)" gradientUnits="userSpaceOnUse">
      <stop offset="0" stop-color="lime"/>
      <stop offset=".36" stop-color="#b5ffb5"/>
      <stop offset=".5" stop-color="#fff"/>
      <stop offset="1" stop-color="#8cc63f"/>
    </linearGradient>
    <linearGradient id="_未命名的渐变_2094-55" data-name="未命名的渐变 2094" x1="466.41" y1="63.29" x2="484.01" y2="68" gradientTransform="translate(428.36 -379.56) rotate(75.94)" xlink:href="#_未命名的渐变_2094"/>
    <linearGradient id="_未命名的渐变_2094-56" data-name="未命名的渐变 2094" x1="470.86" y1="48.21" x2="488.45" y2="52.93" gradientTransform="translate(417.71 -395.09) rotate(75.94)" xlink:href="#_未命名的渐变_2094"/>
    <linearGradient id="_未命名的渐变_2094-57" data-name="未命名的渐变 2094" x1="475.3" y1="33.14" x2="492.9" y2="37.85" gradientTransform="translate(407.06 -410.62) rotate(75.94)" xlink:href="#_未命名的渐变_2094"/>
    <linearGradient id="_未命名的渐变_2094-58" data-name="未命名的渐变 2094" x1="479.74" y1="18.06" x2="497.34" y2="22.77" gradientTransform="translate(396.42 -426.14) rotate(75.94)" xlink:href="#_未命名的渐变_2094"/>
    <linearGradient id="_未命名的渐变_2094-59" data-name="未命名的渐变 2094" x1="484.18" y1="2.98" x2="501.78" y2="7.7" gradientTransform="translate(385.77 -441.67) rotate(75.94)" xlink:href="#_未命名的渐变_2094"/>
    <linearGradient id="_未命名的渐变_2094-60" data-name="未命名的渐变 2094" x1="488.62" y1="-12.09" x2="506.22" y2="-7.38" gradientTransform="translate(375.12 -457.2) rotate(75.94)" xlink:href="#_未命名的渐变_2094"/>
    <linearGradient id="_未命名的渐变_2094-61" data-name="未命名的渐变 2094" x1="493.07" y1="-27.17" x2="510.66" y2="-22.46" gradientTransform="translate(364.48 -472.72) rotate(75.94)" xlink:href="#_未命名的渐变_2094"/>
    <linearGradient id="_未命名的渐变_3269" data-name="未命名的渐变 3269" x1="512.42" y1="34.32" x2="520.67" y2="62" gradientTransform="translate(3.64 4.52) rotate(.85)" gradientUnits="userSpaceOnUse">
      <stop offset="0" stop-color="lime"/>
      <stop offset="1" stop-color="#11d303"/>
    </linearGradient>
    <linearGradient id="_未命名的渐变_3213" data-name="未命名的渐变 3213" x1="24.47" y1="42.08" x2="32.73" y2="69.77" gradientTransform="translate(3.64 4.52) rotate(.85)" gradientUnits="userSpaceOnUse">
      <stop offset="0" stop-color="lime"/>
      <stop offset="1" stop-color="#1dd608"/>
    </linearGradient>
  </defs>
  <g id="_图层_1-2" data-name="图层 1">
    <rect class="cls-79" y="50.54" width="538.1" height="13.33"/>
    <g>
      <g>
        <g>
          <rect class="cls-37" x="30.52" y="103.22" width="11.51" height="18.03" transform="translate(-81.64 115.31) rotate(-73.58)"/>
          <rect class="cls-50" x="35.58" y="88.34" width="11.51" height="18.03" transform="translate(-63.74 109.49) rotate(-73.58)"/>
          <rect class="cls-82" x="40.63" y="73.46" width="11.51" height="18.03" transform="translate(-45.84 103.66) rotate(-73.58)"/>
          <rect class="cls-34" x="45.69" y="58.58" width="11.51" height="18.03" transform="translate(-27.93 97.84) rotate(-73.58)"/>
          <rect class="cls-3" x="50.75" y="43.7" width="11.51" height="18.03" transform="translate(-10.03 92.02) rotate(-73.58)"/>
          <rect class="cls-39" x="55.81" y="28.82" width="11.51" height="18.03" transform="translate(7.87 86.19) rotate(-73.58)"/>
          <rect class="cls-56" x="60.87" y="13.93" width="11.51" height="18.03" transform="translate(25.78 80.37) rotate(-73.58)"/>
          <rect class="cls-49" x="65.92" y="-.95" width="11.51" height="18.03" transform="translate(43.68 74.54) rotate(-73.58)"/>
        </g>
        <polygon class="cls-78" points="82.33 4.87 71.02 39.83 77.07 109.55 89.07 77.25 82.33 4.87"/>
      </g>
      <g>
        <g>
          <rect class="cls-75" x="79.28" y="103.22" width="11.51" height="18.03" transform="translate(-46.67 162.08) rotate(-73.58)"/>
          <rect class="cls-21" x="84.33" y="88.34" width="11.51" height="18.03" transform="translate(-28.76 156.26) rotate(-73.58)"/>
          <rect class="cls-8" x="89.39" y="73.46" width="11.51" height="18.03" transform="translate(-10.86 150.43) rotate(-73.58)"/>
          <rect class="cls-70" x="94.45" y="58.58" width="11.51" height="18.03" transform="translate(7.04 144.61) rotate(-73.58)"/>
          <rect class="cls-12" x="99.51" y="43.7" width="11.51" height="18.03" transform="translate(24.95 138.78) rotate(-73.58)"/>
          <rect class="cls-62" x="104.57" y="28.82" width="11.51" height="18.03" transform="translate(42.85 132.96) rotate(-73.58)"/>
          <rect class="cls-51" x="109.62" y="13.93" width="11.51" height="18.03" transform="translate(60.75 127.14) rotate(-73.58)"/>
          <rect class="cls-85" x="114.68" y="-.95" width="11.51" height="18.03" transform="translate(78.65 121.31) rotate(-73.58)"/>
        </g>
        <polygon class="cls-72" points="131.09 4.87 119.78 39.83 125.83 109.55 137.83 77.25 131.09 4.87"/>
      </g>
      <g>
        <g>
          <rect class="cls-43" x="128.03" y="103.22" width="11.51" height="18.03" transform="translate(-11.69 208.85) rotate(-73.58)"/>
          <rect class="cls-20" x="133.09" y="88.34" width="11.51" height="18.03" transform="translate(6.21 203.03) rotate(-73.58)"/>
          <rect class="cls-5" x="138.15" y="73.46" width="11.51" height="18.03" transform="translate(24.12 197.2) rotate(-73.58)"/>
          <rect class="cls-54" x="143.21" y="58.58" width="11.51" height="18.03" transform="translate(42.02 191.38) rotate(-73.58)"/>
          <rect class="cls-45" x="148.26" y="43.7" width="11.51" height="18.03" transform="translate(59.92 185.55) rotate(-73.58)"/>
          <rect class="cls-13" x="153.32" y="28.82" width="11.51" height="18.03" transform="translate(77.82 179.73) rotate(-73.58)"/>
          <rect class="cls-66" x="158.38" y="13.93" width="11.51" height="18.03" transform="translate(95.73 173.91) rotate(-73.58)"/>
          <rect class="cls-25" x="163.44" y="-.95" width="11.51" height="18.03" transform="translate(113.63 168.08) rotate(-73.58)"/>
        </g>
        <polygon class="cls-84" points="179.84 4.87 168.54 39.83 174.59 109.55 186.59 77.25 179.84 4.87"/>
      </g>
      <g>
        <g>
          <rect class="cls-57" x="176.79" y="103.22" width="11.51" height="18.03" transform="translate(23.29 255.62) rotate(-73.58)"/>
          <rect class="cls-31" x="181.85" y="88.34" width="11.51" height="18.03" transform="translate(41.19 249.79) rotate(-73.58)"/>
          <rect class="cls-92" x="186.91" y="73.46" width="11.51" height="18.03" transform="translate(59.09 243.97) rotate(-73.58)"/>
          <rect class="cls-74" x="191.96" y="58.58" width="11.51" height="18.03" transform="translate(77 238.15) rotate(-73.58)"/>
          <rect class="cls-87" x="197.02" y="43.7" width="11.51" height="18.03" transform="translate(94.9 232.32) rotate(-73.58)"/>
          <rect class="cls-86" x="202.08" y="28.82" width="11.51" height="18.03" transform="translate(112.8 226.5) rotate(-73.58)"/>
          <rect class="cls-24" x="207.14" y="13.93" width="11.51" height="18.03" transform="translate(130.7 220.68) rotate(-73.58)"/>
          <rect class="cls-42" x="212.2" y="-.95" width="11.51" height="18.03" transform="translate(148.61 214.85) rotate(-73.58)"/>
        </g>
        <polygon class="cls-80" points="228.6 4.87 217.29 39.83 223.35 109.55 235.35 77.25 228.6 4.87"/>
      </g>
      <g>
        <g>
          <rect class="cls-55" x="225.55" y="103.22" width="11.51" height="18.03" transform="translate(58.26 302.39) rotate(-73.58)"/>
          <rect class="cls-60" x="230.61" y="88.34" width="11.51" height="18.03" transform="translate(76.17 296.56) rotate(-73.58)"/>
          <rect class="cls-28" x="235.66" y="73.46" width="11.51" height="18.03" transform="translate(94.07 290.74) rotate(-73.58)"/>
          <rect class="cls-59" x="240.72" y="58.58" width="11.51" height="18.03" transform="translate(111.97 284.92) rotate(-73.58)"/>
          <rect class="cls-41" x="245.78" y="43.7" width="11.51" height="18.03" transform="translate(129.87 279.09) rotate(-73.58)"/>
          <rect class="cls-14" x="250.84" y="28.82" width="11.51" height="18.03" transform="translate(147.78 273.27) rotate(-73.58)"/>
          <rect class="cls-83" x="255.9" y="13.93" width="11.51" height="18.03" transform="translate(165.68 267.45) rotate(-73.58)"/>
          <rect class="cls-19" x="260.95" y="-.95" width="11.51" height="18.03" transform="translate(183.58 261.62) rotate(-73.58)"/>
        </g>
        <polygon class="cls-6" points="277.36 4.87 266.05 39.83 272.1 109.55 284.1 77.25 277.36 4.87"/>
      </g>
      <g>
        <g>
          <rect class="cls-36" x="274.31" y="103.22" width="11.51" height="18.03" transform="translate(93.24 349.16) rotate(-73.58)"/>
          <rect class="cls-46" x="279.36" y="88.34" width="11.51" height="18.03" transform="translate(111.14 343.33) rotate(-73.58)"/>
          <rect class="cls-91" x="284.42" y="73.46" width="11.51" height="18.03" transform="translate(129.04 337.51) rotate(-73.58)"/>
          <rect class="cls-11" x="289.48" y="58.58" width="11.51" height="18.03" transform="translate(146.95 331.69) rotate(-73.58)"/>
          <rect class="cls-69" x="294.54" y="43.7" width="11.51" height="18.03" transform="translate(164.85 325.86) rotate(-73.58)"/>
          <rect class="cls-63" x="299.6" y="28.82" width="11.51" height="18.03" transform="translate(182.75 320.04) rotate(-73.58)"/>
          <rect class="cls-27" x="304.65" y="13.93" width="11.51" height="18.03" transform="translate(200.66 314.21) rotate(-73.58)"/>
          <rect class="cls-53" x="309.71" y="-.95" width="11.51" height="18.03" transform="translate(218.56 308.39) rotate(-73.58)"/>
        </g>
        <polygon class="cls-88" points="326.12 4.87 314.81 39.83 320.86 109.55 332.86 77.25 326.12 4.87"/>
      </g>
      <g>
        <g>
          <rect class="cls-71" x="323.06" y="103.22" width="11.51" height="18.03" transform="translate(128.22 395.93) rotate(-73.58)"/>
          <rect class="cls-64" x="328.12" y="88.34" width="11.51" height="18.03" transform="translate(146.12 390.1) rotate(-73.58)"/>
          <rect class="cls-67" x="333.18" y="73.46" width="11.51" height="18.03" transform="translate(164.02 384.28) rotate(-73.58)"/>
          <rect class="cls-32" x="338.24" y="58.58" width="11.51" height="18.03" transform="translate(181.92 378.46) rotate(-73.58)"/>
          <rect class="cls-33" x="343.3" y="43.7" width="11.51" height="18.03" transform="translate(199.83 372.63) rotate(-73.58)"/>
          <rect class="cls-16" x="348.35" y="28.82" width="11.51" height="18.03" transform="translate(217.73 366.81) rotate(-73.58)"/>
          <rect class="cls-30" x="353.41" y="13.93" width="11.51" height="18.03" transform="translate(235.63 360.98) rotate(-73.58)"/>
          <rect class="cls-9" x="358.47" y="-.95" width="11.51" height="18.03" transform="translate(253.53 355.16) rotate(-73.58)"/>
        </g>
        <polygon class="cls-73" points="374.87 4.87 363.57 39.83 369.62 109.55 381.62 77.25 374.87 4.87"/>
      </g>
      <g>
        <g>
          <rect class="cls-65" x="371.82" y="103.22" width="11.51" height="18.03" transform="translate(163.19 442.7) rotate(-73.58)"/>
          <rect class="cls-7" x="376.88" y="88.34" width="11.51" height="18.03" transform="translate(181.09 436.87) rotate(-73.58)"/>
          <rect class="cls-1" x="381.94" y="73.46" width="11.51" height="18.03" transform="translate(199 431.05) rotate(-73.58)"/>
          <rect class="cls-10" x="387" y="58.58" width="11.51" height="18.03" transform="translate(216.9 425.22) rotate(-73.58)"/>
          <rect class="cls-35" x="392.05" y="43.7" width="11.51" height="18.03" transform="translate(234.8 419.4) rotate(-73.58)"/>
          <rect class="cls-58" x="397.11" y="28.82" width="11.51" height="18.03" transform="translate(252.71 413.58) rotate(-73.58)"/>
          <rect class="cls-90" x="402.17" y="13.93" width="11.51" height="18.03" transform="translate(270.61 407.75) rotate(-73.58)"/>
          <rect class="cls-76" x="407.23" y="-.95" width="11.51" height="18.03" transform="translate(288.51 401.93) rotate(-73.58)"/>
        </g>
        <polygon class="cls-23" points="423.63 4.87 412.33 39.83 418.38 109.55 430.38 77.25 423.63 4.87"/>
      </g>
      <g>
        <g>
          <rect class="cls-77" x="420.58" y="103.22" width="11.51" height="18.03" transform="translate(198.17 489.46) rotate(-73.58)"/>
          <rect class="cls-48" x="425.64" y="88.34" width="11.51" height="18.03" transform="translate(216.07 483.64) rotate(-73.58)"/>
          <rect class="cls-29" x="430.69" y="73.46" width="11.51" height="18.03" transform="translate(233.97 477.82) rotate(-73.58)"/>
          <rect class="cls-18" x="435.75" y="58.58" width="11.51" height="18.03" transform="translate(251.88 471.99) rotate(-73.58)"/>
          <rect class="cls-22" x="440.81" y="43.7" width="11.51" height="18.03" transform="translate(269.78 466.17) rotate(-73.58)"/>
          <rect class="cls-40" x="445.87" y="28.82" width="11.51" height="18.03" transform="translate(287.68 460.35) rotate(-73.58)"/>
          <rect class="cls-52" x="450.93" y="13.93" width="11.51" height="18.03" transform="translate(305.58 454.52) rotate(-73.58)"/>
          <rect class="cls-2" x="455.98" y="-.95" width="11.51" height="18.03" transform="translate(323.49 448.7) rotate(-73.58)"/>
        </g>
        <polygon class="cls-4" points="472.39 4.87 461.08 39.83 467.14 109.55 479.14 77.25 472.39 4.87"/>
      </g>
      <g>
        <g>
          <rect class="cls-81" x="469.34" y="103.22" width="11.51" height="18.03" transform="translate(233.14 536.23) rotate(-73.58)"/>
          <rect class="cls-38" x="474.39" y="88.34" width="11.51" height="18.03" transform="translate(251.05 530.41) rotate(-73.58)"/>
          <rect class="cls-89" x="479.45" y="73.46" width="11.51" height="18.03" transform="translate(268.95 524.59) rotate(-73.58)"/>
          <rect class="cls-44" x="484.51" y="58.58" width="11.51" height="18.03" transform="translate(286.85 518.76) rotate(-73.58)"/>
          <rect class="cls-68" x="489.57" y="43.7" width="11.51" height="18.03" transform="translate(304.75 512.94) rotate(-73.58)"/>
          <rect class="cls-17" x="494.63" y="28.82" width="11.51" height="18.03" transform="translate(322.66 507.12) rotate(-73.58)"/>
          <rect class="cls-15" x="499.68" y="13.93" width="11.51" height="18.03" transform="translate(340.56 501.29) rotate(-73.58)"/>
          <rect class="cls-26" x="504.74" y="-.95" width="11.51" height="18.03" transform="translate(358.46 495.47) rotate(-73.58)"/>
        </g>
        <polygon class="cls-61" points="521.15 4.87 509.84 39.83 515.89 109.55 527.89 77.25 521.15 4.87"/>
      </g>
    </g>
    <polygon class="cls-47" points="33.14 5.38 21.84 40.34 27.89 110.06 39.89 77.76 33.14 5.38"/>
  </g>
</svg>